<svg width="138" height="185" viewBox="0 0 138 185" fill="none" xmlns="http://www.w3.org/2000/svg">
<path d="M64.3732 104.583V100.939C64.3732 98.4088 65.6775 96.0806 70.1534 96.0806C75.9336 96.0806 76.3063 98.8128 76.3063 101.951L114.528 102.053C114.528 90.3141 104.646 77.3592 66.4248 77.3592C36.5921 77.3592 20.1851 89.4021 20.1851 100.941V122.701C20.1851 135.958 31.9318 150.431 69.2198 150.431C106.508 150.431 119 141.828 119 123.813C119 105.797 90.6598 104.583 64.3713 104.583H64.3732Z" fill="#FFF9D0"/>
<path d="M68.4624 18.7274C61.8565 18.7274 61.8565 22.0146 61.8565 25.8001L21.4832 25.9002V18.4292C21.4812 5.47816 36.1622 0 71.3986 0C99.8446 0 118.195 7.8691 118.195 22.1147C118.195 40.3438 101.127 47.3185 67.9113 47.3185V49.7095H115.626V72.9205H21.2988V49.6094C21.2988 36.7584 26.9888 30.0838 55.4329 30.0838C71.2162 30.0838 75.2527 27.2947 75.2527 23.3092C75.2527 22.1147 75.0684 18.7274 68.4624 18.7274Z" fill="#FFF9D0"/>
<path d="M63.1959 124.373C64.8236 124.373 66.1432 123.063 66.1432 121.446C66.1432 119.83 64.8236 118.52 63.1959 118.52C61.5681 118.52 60.2485 119.83 60.2485 121.446C60.2485 123.063 61.5681 124.373 63.1959 124.373Z" fill="#1F4806"/>
<path d="M93.3388 128.148L96.0986 123.489C96.2474 123.238 96.1551 122.916 95.8902 122.775L91.0137 120.138" fill="#192C0A"/>
<path d="M48.9715 129.453L46.2117 124.794C46.0628 124.543 46.1551 124.221 46.4201 124.08L51.2966 121.443" fill="#7E8825"/>
<path d="M82.3593 88.4826L85.1191 83.8238C85.2679 83.573 85.1756 83.2505 84.9107 83.1101L80.0342 80.4731" fill="#192C0A"/>
<path d="M87.5126 107.828L90.2724 103.17C90.4212 102.919 90.3289 102.596 90.064 102.456L85.1875 99.819" fill="#192C0A"/>
<path d="M83.8418 94.9063L82.645 89.8324C83.8359 89.6443 85.4762 89.2591 87.2774 88.405C89.2452 87.4732 90.6683 86.3324 91.5882 85.4723H97.1792C96.2831 86.9864 94.4611 89.6174 91.231 91.8154C88.3223 93.7954 85.5268 94.5718 83.8448 94.9063H83.8418Z" fill="#7E8825"/>
<path d="M78.2871 74.0793L79.8977 79.7504C81.6066 79.4518 84.804 78.6694 88.0282 76.3639C90.9368 74.2854 92.5742 71.8933 93.3989 70.4718H87.4923C86.1407 71.3527 84.3217 72.3472 82.0472 73.1237C80.6777 73.5895 79.4065 73.8882 78.2871 74.0823V74.0793Z" fill="#7E8825"/>
<path d="M23.9697 72.9982C21.5642 67.999 22.2758 62.3219 25.762 58.6008C29.1529 54.9814 33.8448 54.623 34.9493 54.5662C34.8957 54.0556 34.2973 47.0854 40.0758 42.6834C44.8184 39.0729 50.3111 39.8882 51.1864 40.0315C54.0355 33.578 60.2308 29.1282 67.2061 28.6026C75.667 27.9665 83.8838 33.2076 86.8609 41.459C91.3355 39.8225 96.3698 40.7841 99.6803 43.9078C104.238 48.2052 102.973 54.181 102.884 54.5662C103.708 54.5901 109.788 54.8619 113.78 59.8253C117.165 64.0361 116.697 68.7008 116.575 69.6773C103.491 69.8267 90.4096 69.979 77.3253 70.1283C78.6977 68.4589 79.1741 67.2016 78.7483 66.3625C77.8254 64.5348 72.6602 64.6602 63.2525 66.7387C63.7229 67.2046 64.5059 68.1065 64.9822 69.4593C65.527 71.0093 65.3871 72.3412 65.271 72.9952H23.9697V72.9982Z" fill="#BCD42A"/>
<path d="M54.9558 74.7184C54.0567 74.7543 52.5741 74.6975 50.8831 74.0853C49.3558 73.5298 48.2662 72.7414 47.6083 72.183H41.2998C43.744 75.2769 46.1852 76.6924 47.9268 77.4151C50.892 78.6425 52.9879 78.3409 57.9894 79.8729C59.9811 80.4821 61.559 81.1182 62.5414 81.5363C62.9939 79.7654 63.4464 77.9945 63.899 76.2236C63.3065 76.1608 61.8448 75.9219 60.4664 74.7961C59.3023 73.8464 58.7694 72.7325 58.5491 72.18H53.759L54.9558 74.7154V74.7184Z" fill="#192C0A"/>
<path d="M71.3057 131.743H48.0903C54.1666 110.113 60.2428 88.4826 66.3221 66.8523H71.3057V131.743Z" fill="#192C0A"/>
<path d="M71.3057 131.743C79.0431 131.743 86.7836 131.743 94.5211 131.743C88.4448 110.113 82.3686 88.4826 76.2893 66.8523C74.6281 66.8523 72.9669 66.8523 71.3057 66.8523V131.743Z" fill="#7E8825"/>
<path d="M64.5003 73.3327H23.97C23.9284 73.0848 23.5681 70.7346 25.411 68.9786C26.7953 67.6616 28.8852 67.1897 30.8174 67.7542C31.2193 67.1957 34.4167 62.9043 40.4036 62.4474C45.9291 62.0293 49.6237 65.1948 50.2072 65.7115C50.4067 65.3919 50.9277 64.6543 51.9369 64.1466C52.967 63.63 53.9226 63.6449 54.3156 63.6718C54.265 63.3552 53.5475 58.3709 57.5577 55.1009C60.5616 52.652 64.9647 52.1832 68.6563 53.9451C71.4696 49.9195 76.4086 47.6648 81.4846 48.0948C86.635 48.5308 91.1215 51.6605 93.0893 56.1879C93.5924 56.0057 97.5341 54.6469 101.449 56.8001C105.688 59.1325 106.168 63.5284 106.206 63.9435C106.921 63.845 109.868 63.5135 112.765 65.3053C115.566 67.0374 116.448 69.5967 116.656 70.2717C103.539 70.3851 90.4189 70.4986 77.3018 70.6121C77.147 70.1134 76.9922 69.5997 76.8463 69.0682C76.6349 68.3066 76.4503 67.569 76.2866 66.8523H66.3163C66.0275 67.8766 65.7387 68.9039 65.4529 69.9282C65.1344 71.0631 64.8158 72.1949 64.4973 73.3297L64.5003 73.3327Z" fill="#7E8825"/>
<path d="M58.358 98.4601C59.9857 98.4601 61.3053 97.1498 61.3053 95.5334C61.3053 93.9171 59.9857 92.6068 58.358 92.6068C56.7302 92.6068 55.4106 93.9171 55.4106 95.5334C55.4106 97.1498 56.7302 98.4601 58.358 98.4601Z" fill="#BCD42A"/>
<path d="M59.951 89.7877L57.1912 85.1289C57.0423 84.8781 57.1346 84.5555 57.3996 84.4152L62.2761 81.7782" fill="#7E8825"/>
<path d="M54.7976 109.133L52.0379 104.475C51.889 104.224 51.9813 103.901 52.2463 103.761L57.1228 101.124" fill="#7E8825"/>
<path d="M65.2231 75.6833C66.8509 75.6833 68.1704 76.9938 68.1704 78.6101C68.1704 78.9384 68.1127 79.253 68.0122 79.5476C68.9809 80.4613 69.9498 81.3746 70.9175 82.2888L81.0796 87.3113C81.5335 87.0277 82.0691 86.8611 82.645 86.8611C84.2728 86.8611 85.5923 88.1715 85.5923 89.7878C85.5922 91.4041 84.2727 92.7146 82.645 92.7146C81.9446 92.7146 81.3021 92.4705 80.7964 92.0652L73.5083 99.447C73.9699 99.9636 74.2524 100.642 74.2524 101.386C74.2524 103.003 72.9329 104.313 71.3052 104.313C69.6774 104.313 68.3579 103.003 68.3579 101.386C68.3579 101.289 68.3632 101.193 68.3726 101.097C66.1658 100.106 63.9588 99.1147 61.7515 98.1238C64.8729 102.881 67.995 107.639 71.1187 112.398H87.1421C87.5531 111.273 88.6349 110.469 89.9097 110.469C91.5374 110.469 92.8569 111.779 92.8569 113.395C92.8568 115.011 91.5373 116.322 89.9097 116.322C88.6373 116.322 87.5568 115.52 87.144 114.398H71.7153L65.8628 120.207C66.0407 120.583 66.143 121.003 66.1431 121.446C66.1431 123.062 64.8236 124.373 63.1958 124.373C61.5681 124.373 60.2485 123.062 60.2485 121.446C60.2487 119.83 61.5681 118.519 63.1958 118.519C63.6424 118.519 64.0645 118.621 64.4438 118.798L69.5796 113.699C65.7846 107.917 61.9928 102.137 58.2007 96.3572L56.3228 93.4958L59.4458 94.8962C62.7132 96.3614 65.9781 97.8292 69.2427 99.2966C69.7743 98.7793 70.5021 98.4597 71.3052 98.4597C71.4222 98.4597 71.5375 98.468 71.6509 98.4812L79.7427 90.2839C79.7149 90.1225 79.6978 89.9571 79.6978 89.7878C79.6978 89.487 79.7437 89.1967 79.8286 88.9236L69.8979 84.0154L69.7632 83.949L69.6538 83.8464C68.6871 82.933 67.7193 82.0209 66.7515 81.1082C66.3054 81.3777 65.7835 81.5359 65.2231 81.5359C63.5956 81.5359 62.2761 80.2262 62.2759 78.6101C62.2759 76.9938 63.5954 75.6834 65.2231 75.6833Z" fill="#BCD42A"/>
<path d="M44.0893 173.414C43.9272 174.806 43.4476 176.022 42.6506 177.062C41.8671 178.102 40.8269 178.913 39.5301 179.493C38.2332 180.074 36.7472 180.365 35.0722 180.365C33.262 180.365 31.6815 180.034 30.3306 179.372C28.9797 178.71 27.926 177.785 27.1695 176.596C26.4265 175.394 26.0551 173.995 26.0551 172.401C26.0551 170.807 26.4265 169.416 27.1695 168.227C27.926 167.025 28.9797 166.093 30.3306 165.431C31.6815 164.769 33.262 164.438 35.0722 164.438C36.7472 164.438 38.2332 164.728 39.5301 165.309C40.8269 165.89 41.8671 166.701 42.6506 167.741C43.4476 168.781 43.9272 169.997 44.0893 171.388H38.8411C38.7195 170.861 38.4966 170.416 38.1724 170.051C37.8482 169.673 37.4227 169.389 36.8958 169.2C36.3825 168.997 35.7746 168.896 35.0722 168.896C34.2886 168.896 33.6132 169.038 33.0458 169.321C32.492 169.591 32.0665 169.99 31.7693 170.517C31.4721 171.044 31.3235 171.672 31.3235 172.401C31.3235 173.131 31.4721 173.759 31.7693 174.286C32.0665 174.799 32.492 175.198 33.0458 175.481C33.6132 175.765 34.2886 175.907 35.0722 175.907C35.7746 175.907 36.3825 175.819 36.8958 175.643C37.4227 175.454 37.8482 175.177 38.1724 174.813C38.4966 174.434 38.7195 173.968 38.8411 173.414H44.0893ZM60.6925 170.598V174.205H49.2439V170.598H60.6925ZM52.8304 172.401L51.8983 178.055L49.9125 175.866H61.4423V180H46.7312L47.8457 172.401L46.7312 164.803H61.341V168.936H49.9125L51.8983 166.748L52.8304 172.401ZM64.9989 164.803H70.2268V180H64.9989V164.803ZM85.0986 172.624L85.5038 171.692C86.6521 171.733 87.6112 171.915 88.3812 172.239C89.1512 172.563 89.7253 173.016 90.1036 173.597C90.4953 174.164 90.6912 174.846 90.6912 175.643C90.6912 176.467 90.5021 177.21 90.1238 177.872C89.7591 178.534 89.1985 179.054 88.442 179.433C87.6855 179.811 86.7399 180 85.6051 180H73.6701L74.8251 172.199L73.6701 164.803H85.1796C86.5845 164.803 87.6855 165.134 88.4825 165.796C89.2795 166.444 89.678 167.349 89.678 168.511C89.678 169.173 89.5294 169.794 89.2323 170.375C88.9351 170.956 88.4487 171.449 87.7733 171.854C87.1114 172.246 86.2198 172.503 85.0986 172.624ZM78.7765 178.865L76.7907 176.535H83.9436C84.3894 176.535 84.7406 176.42 84.9973 176.191C85.2539 175.947 85.3823 175.623 85.3823 175.218C85.3823 174.853 85.2539 174.542 84.9973 174.286C84.7541 174.029 84.3894 173.901 83.903 173.901H77.9051V170.497H83.133C83.4843 170.497 83.7747 170.389 84.0044 170.172C84.2475 169.956 84.3691 169.679 84.3691 169.342C84.3691 169.031 84.261 168.774 84.0449 168.572C83.8287 168.369 83.5248 168.268 83.133 168.268H76.8109L78.7765 165.937L79.8099 172.199L78.7765 178.865ZM96.732 177.447V173.293H107.086V177.447H96.732ZM105.486 164.803L112.152 180H106.58L101.332 167.113H102.669L97.4209 180H91.8486L98.5152 164.803H105.486Z" fill="#FFF9D0"/>
</svg>
