<svg width="107" height="27" viewBox="0 0 107 27" fill="none" xmlns="http://www.w3.org/2000/svg">
<path d="M39.2334 18.6407C36.771 18.6384 35.4392 16.8421 35.4392 13.8811C35.4392 11.2358 36.8985 9.2805 39.1793 9.2805C40.4181 9.2805 41.4428 9.75529 42.3357 10.7213L43.9765 8.649C42.6081 7.12872 41.1315 6.51593 39.1793 6.51593C35.4392 6.51593 32.4277 9.55415 32.4277 13.8788C32.4277 18.4981 35.182 21.3983 39.2334 21.3983C41.5509 21.3983 43.0296 20.5095 44.2684 19.0711L42.5908 16.9988C41.7325 17.8689 40.9131 18.6384 39.2334 18.6384V18.6407Z" fill="#FFFDF2"/>
<path d="M56.9673 13.7829H56.9651C56.8354 14.0425 56.7273 14.3957 56.7273 14.4378C56.71 14.3793 56.5976 14.0425 56.4722 13.7852L52.877 6.75917H50.0146V21.1667H52.9332V12.8567C52.9332 12.3819 52.8792 11.9281 52.8792 11.8697C52.8964 11.9468 53.0089 12.2252 53.117 12.4216L56.1458 18.3227H57.2591L60.2339 12.4216C60.342 12.2041 60.4522 11.9281 60.4717 11.8697C60.4544 11.9281 60.4177 12.3819 60.4177 12.8567V21.1667H63.3362V6.75684H60.3614L56.9673 13.7829Z" fill="#FFFDF2"/>
<path d="M68.8429 6.75684H65.9243V21.1644H68.8429V6.75684Z" fill="#FFFDF2"/>
<path d="M80.1171 14.9289C80.1171 15.2821 80.1539 15.6399 80.1539 15.6587C80.1366 15.6002 80.0069 15.3242 79.8253 15.0669L73.9492 6.75684H71.4307V21.1644H74.3492V12.9151C74.3492 12.5807 74.3125 12.2228 74.3125 12.2041C74.3297 12.2439 74.4768 12.5199 74.6411 12.7748L80.5171 21.1644H83.0357V6.75684H80.1171V14.9289Z" fill="#FFFDF2"/>
<path d="M89.6596 6.75684H85.6299V21.1644H89.6596C93.2008 21.1644 96.5907 18.6969 96.5907 13.9419C96.5907 9.18694 93.4516 6.75684 89.6596 6.75684ZM89.6596 18.5004L88.5463 18.5027V9.42317H89.6596C91.9945 9.42317 93.5813 11.4159 93.5813 13.9419C93.5813 16.4679 92.1415 18.5004 89.6596 18.5004Z" fill="#FFFDF2"/>
<path d="M104.179 13.114C102.627 12.3842 100.932 11.989 100.932 10.6862C100.932 10.1155 101.405 9.2852 102.756 9.2852C103.723 9.2852 104.709 9.63837 105.292 10.1132L106.607 7.76492C105.53 6.89485 104.017 6.52063 102.756 6.52063C100.404 6.52063 98.0133 7.72516 98.0133 10.6862C98.0133 12.976 99.0726 13.8835 100.404 14.674C101.518 15.3453 103.943 15.8388 103.943 17.2795C103.943 18.1473 103.578 18.6408 102.248 18.6408C101.152 18.6408 100.022 18.0701 99.2391 17.3965L97.7236 19.6067C99.0013 20.6709 100.352 21.403 102.194 21.403C105.078 21.403 106.864 19.8055 106.864 17.0807C106.864 14.7114 105.478 13.7244 104.181 13.114H104.179Z" fill="#FFFDF2"/>
<path d="M5.89489 12.2416V12.2462C4.71882 12.4497 4.87017 14.3746 6.08082 14.2998C7.33688 14.1571 7.18771 12.1199 5.91652 12.2416H5.89705H5.89489Z" fill="#FFFDF2"/>
<path d="M6.21274 9.8676C5.62038 10.0126 5.28313 10.8897 5.66794 11.4276C5.97709 11.8978 6.64944 11.9352 7.01912 11.5165C7.65904 10.8382 7.12289 9.65709 6.23436 9.86292L6.21491 9.8676H6.21274Z" fill="#FFFDF2"/>
<path d="M6.2884 14.7558L6.26895 14.7605C5.63984 14.8705 5.31987 15.7382 5.69388 16.2925C5.9879 16.779 6.67322 16.8562 7.05372 16.4375C7.67634 15.7943 7.15316 14.5898 6.29056 14.7558H6.2884Z" fill="#FFFDF2"/>
<path d="M8.41135 18.0607C8.56052 17.469 8.03519 16.8632 7.48823 16.9474L7.46877 16.945C6.66454 17.069 6.44403 18.3297 7.2115 18.7086C7.68712 18.9729 8.30758 18.6244 8.41351 18.0607H8.41135Z" fill="#FFFDF2"/>
<path d="M7.26148 9.54477C7.75007 9.74825 8.34027 9.32024 8.39864 8.75189C8.48944 8.16483 7.93599 7.62922 7.41065 7.75552L7.3912 7.7602C6.57401 7.96134 6.42699 9.23136 7.26148 9.54477Z" fill="#FFFDF2"/>
<path d="M9.28485 18.5683L9.26538 18.5706C8.70329 18.6197 8.34874 19.3939 8.65357 19.9131C8.89137 20.3786 9.50967 20.5072 9.87071 20.133C10.4501 19.588 10.0545 18.5098 9.28485 18.5683Z" fill="#FFFDF2"/>
<path d="M9.36033 6.17446H9.34087C8.58205 6.14171 8.1994 7.22228 8.80473 7.73918C9.17441 8.08767 9.77757 7.93564 10.0046 7.47254C10.3029 6.94629 9.92243 6.19785 9.36033 6.17212V6.17446Z" fill="#FFFDF2"/>
<path d="M11.4208 19.4781H11.4014C10.6404 19.602 10.4956 20.7785 11.2176 21.0872C11.6176 21.2744 12.1278 21.0124 12.2488 20.5516C12.4283 19.9973 11.957 19.3822 11.4208 19.4757V19.4781Z" fill="#FFFDF2"/>
<path d="M11.1074 6.94862C11.5095 7.18719 12.0759 6.91822 12.1926 6.43173C12.3461 5.91483 11.9505 5.32075 11.4403 5.35116H11.4208C10.6512 5.39092 10.4264 6.56972 11.1074 6.94862Z" fill="#FFFDF2"/>
<path d="M13.695 19.5693C13.2713 19.6792 13.0032 20.2289 13.1805 20.6662C13.3599 21.1527 13.9977 21.1808 14.3025 20.8229L14.3176 20.8066C14.7824 20.2756 14.389 19.3682 13.695 19.5716V19.5693Z" fill="#FFFDF2"/>
<path d="M13.6951 5.42601H13.6757C13.2174 5.48682 12.9277 6.13002 13.1568 6.56739C13.3406 6.95331 13.84 7.07025 14.1513 6.78724C14.6875 6.34051 14.3934 5.35818 13.6973 5.42601H13.6951Z" fill="#FFFDF2"/>
<path d="M8.22977 12.5035C7.4342 12.6625 7.50338 13.8905 8.31193 13.9349C9.24586 13.8975 9.19397 12.4287 8.25139 12.5035H8.23193H8.22977Z" fill="#FFFDF2"/>
<path d="M9.23732 11.3831C9.73455 10.9949 9.45999 10.1646 8.84818 10.216L8.82872 10.2184C8.45255 10.2628 8.18448 10.7423 8.33798 11.1188C8.47634 11.4907 8.94762 11.624 9.23732 11.3831Z" fill="#FFFDF2"/>
<path d="M8.49158 15.1137C7.90355 15.7616 8.78128 16.6363 9.35418 16.0002H9.35202L9.36715 15.9838C9.87303 15.3383 9.04503 14.5337 8.49158 15.1137Z" fill="#FFFDF2"/>
<path d="M16.335 7.4702C16.7285 7.03751 16.3891 6.26333 15.8248 6.38729L15.8054 6.39197C15.427 6.48787 15.2087 7.0492 15.4443 7.40004C15.6389 7.73216 16.0929 7.77426 16.3372 7.46786L16.335 7.4702Z" fill="#FFFDF2"/>
<path d="M15.9368 20.0581C16.7173 20.0885 16.7605 18.8466 15.9844 18.8021H15.965C15.2278 18.8232 15.1975 19.9926 15.9368 20.0581Z" fill="#FFFDF2"/>
<path d="M11.0254 17.4198C11.1443 17.0105 10.7746 16.5778 10.3941 16.6831L10.3747 16.6878C9.88393 16.8141 9.78232 17.6023 10.2687 17.8244C10.5671 17.9812 10.9454 17.773 11.0276 17.4222L11.0254 17.4198Z" fill="#FFFDF2"/>
<path d="M10.1516 9.61732C10.4456 9.89097 10.9298 9.68749 11.0163 9.2852C11.1179 8.91332 10.8153 8.50401 10.4564 8.5391H10.4369C9.96132 8.59055 9.76458 9.29924 10.1516 9.61732Z" fill="#FFFDF2"/>
<path d="M12.2054 8.7379C12.3525 9.08639 12.8281 9.15656 13.0421 8.84782C13.3469 8.46892 12.9945 7.87017 12.5535 7.97308L12.5341 7.97776C12.2444 8.04792 12.0628 8.44787 12.2054 8.7379Z" fill="#FFFDF2"/>
<path d="M12.7374 18.4326C13.3687 18.3203 13.2606 17.3193 12.625 17.3591H12.6034C11.9462 17.4667 12.078 18.5192 12.7396 18.4326H12.7374Z" fill="#FFFDF2"/>
<path d="M10.0872 13.3385C10.152 13.6378 10.5109 13.7852 10.7401 13.6004L10.7552 13.5864C11.0622 13.3361 10.8806 12.7374 10.4893 12.7491H10.4914C10.2234 12.7421 10.0072 13.0601 10.0872 13.3408V13.3385Z" fill="#FFFDF2"/>
<path d="M14.8342 16.793H14.8148C14.4127 16.8024 14.2678 17.4035 14.5964 17.642C15.2536 18.0724 15.5801 16.8819 14.8364 16.793H14.8342Z" fill="#FFFDF2"/>
<path d="M14.5275 8.79405H14.5297L14.5146 8.81042C14.307 9.0256 14.3611 9.45829 14.6399 9.57056C14.9102 9.69686 15.2496 9.47232 15.2626 9.15657C15.3058 8.72622 14.7999 8.50402 14.5275 8.79171V8.79405Z" fill="#FFFDF2"/>
<path d="M17.7165 18.2899C18.3197 18.2525 18.2851 17.2819 17.6516 17.3871L17.6322 17.3918C17.176 17.5321 17.2192 18.2806 17.7186 18.2899H17.7165Z" fill="#FFFDF2"/>
<path d="M21.463 12.0849C21.6965 12.2626 22.023 12.1082 22.0748 11.8159C22.144 11.5259 21.8889 11.2148 21.6187 11.2545H21.5992C21.236 11.3177 21.1517 11.8837 21.463 12.0849Z" fill="#FFFDF2"/>
<path d="M21.9838 14.5805L21.9687 14.5641C21.5709 14.1571 21.0002 14.7863 21.3936 15.2073C21.7849 15.6166 22.3449 15.0108 21.986 14.5828L21.9838 14.5805Z" fill="#FFFDF2"/>
<path d="M3.18392 14.5477L3.16879 14.5641C2.79046 14.971 3.32013 15.6096 3.72872 15.2213C4.13948 14.819 3.60765 14.1641 3.18392 14.5477Z" fill="#FFFDF2"/>
<path d="M3.40662 11.1704H3.38715C3.01531 11.2008 2.89424 11.7785 3.20555 11.9936C3.42174 12.1691 3.74386 12.0404 3.8152 11.7644C3.906 11.4838 3.67685 11.1563 3.40662 11.1704Z" fill="#FFFDF2"/>
<path d="M5.39586 18.2853C5.7569 17.876 5.21211 17.2819 4.82513 17.6561L4.81 17.6725C4.43383 18.1052 5.00456 18.7086 5.39586 18.2853Z" fill="#FFFDF2"/>
<path d="M20.3387 17.6889L20.3236 17.6725C19.956 17.2772 19.381 17.8362 19.7225 18.2689C20.0922 18.7133 20.6954 18.1449 20.3387 17.6889Z" fill="#FFFDF2"/>
<path d="M20.3085 8.94839L20.3236 8.93202C20.7646 8.36367 19.8826 7.80701 19.6361 8.504C19.5151 8.92266 20.0188 9.25478 20.3063 8.94839H20.3085Z" fill="#FFFDF2"/>
<path d="M12.7848 4.018C13.3469 4.06477 13.3815 3.17834 12.8259 3.15027H12.8064C12.3265 3.19003 12.3222 3.93847 12.787 4.018H12.7848Z" fill="#FFFDF2"/>
<path d="M4.85756 8.9016C5.4564 9.2501 5.73962 8.1438 5.06511 8.09235H5.04564C4.68461 8.11574 4.54193 8.69344 4.85756 8.9016Z" fill="#FFFDF2"/>
<path d="M9.61771 3.87067H9.61988C9.65663 3.59468 9.39936 3.33973 9.15074 3.40055L9.13129 3.40522C8.78971 3.49644 8.72702 4.03205 9.04914 4.20045C9.28478 4.34312 9.5961 4.15367 9.61771 3.86832V3.87067Z" fill="#FFFDF2"/>
<path d="M6.82021 20.2125L6.80074 20.2172C6.5478 20.2897 6.40513 20.6569 6.5543 20.8954C6.68617 21.1106 6.991 21.1317 7.16179 20.9563C7.4731 20.6569 7.24178 20.1002 6.82021 20.2101V20.2125Z" fill="#FFFDF2"/>
<path d="M18.1596 20.2101L18.1401 20.2148C17.8937 20.2756 17.7424 20.6218 17.8807 20.8603C18.0148 21.1153 18.3715 21.1387 18.5358 20.9071C18.7801 20.6077 18.5185 20.1283 18.1618 20.2101H18.1596Z" fill="#FFFDF2"/>
<path d="M13.0012 22.9841C13.0726 22.7034 12.8131 22.4181 12.5558 22.4508H12.5364C12.1862 22.5093 12.0846 23.0332 12.3916 23.232C12.6142 23.4004 12.9428 23.2648 13.0012 22.9817V22.9841Z" fill="#FFFDF2"/>
<path d="M18.2807 6.38495C18.8277 6.26099 18.6936 5.41665 18.1337 5.5523L18.1142 5.55932C17.6603 5.7324 17.7943 6.45044 18.2807 6.38495Z" fill="#FFFDF2"/>
<path d="M15.6885 4.28229C15.9372 4.44601 16.2679 4.2168 16.2636 3.90573C16.2744 3.64845 16.0388 3.43093 15.8096 3.48239L15.7901 3.48707C15.4529 3.56191 15.3751 4.10687 15.6885 4.27995V4.28229Z" fill="#FFFDF2"/>
<path d="M15.8158 22.2684H15.8137L15.7942 22.2707C15.5024 22.3245 15.3813 22.7455 15.5802 22.9794C15.7272 23.1665 16.0234 23.1688 16.1704 22.9841C16.4125 22.7034 16.1704 22.2005 15.818 22.2684H15.8158Z" fill="#FFFDF2"/>
<path d="M9.58952 22.9303C9.79058 22.6309 9.52034 22.1771 9.18525 22.2613L9.16579 22.266C8.86961 22.3362 8.768 22.7806 8.99067 22.9981C9.15498 23.1782 9.46413 23.1431 9.59169 22.9303H9.58952Z" fill="#FFFDF2"/>
<path d="M6.81408 6.31246H6.81625C7.47562 6.3265 7.37186 5.28569 6.72762 5.47514L6.70815 5.48216C6.34496 5.6412 6.41414 6.27504 6.81408 6.31246Z" fill="#FFFDF2"/>
<path d="M17.9431 8.91327C18.2025 8.66769 17.9928 8.14846 17.6491 8.20459H17.6296C17.0156 8.38702 17.4394 9.35065 17.9431 8.91327Z" fill="#FFFDF2"/>
<path d="M11.4448 15.5908C11.6394 15.6937 11.8815 15.5604 11.9312 15.3359C12.0026 15.0692 11.7518 14.7956 11.5075 14.8587L11.4881 14.8634C11.1767 14.9546 11.1465 15.4528 11.447 15.5885L11.4448 15.5908Z" fill="#FFFDF2"/>
<path d="M11.9136 11.2662C12.0087 10.9131 11.6066 10.6394 11.3493 10.8663L11.3342 10.8803C11.1699 11.0347 11.1742 11.3598 11.3623 11.4908C11.559 11.6451 11.8639 11.5212 11.9157 11.2662H11.9136Z" fill="#FFFDF2"/>
<path d="M18.6521 15.4294L18.637 15.4435C18.3689 15.7662 18.8359 16.2013 19.0975 15.8691C19.3288 15.5627 18.9116 15.1698 18.6521 15.4294Z" fill="#FFFDF2"/>
<path d="M19.0352 11.0043H19.0373C19.2535 10.8008 19.0806 10.3962 18.7974 10.4523L18.7779 10.457C18.3282 10.6184 18.6655 11.313 19.0352 11.0043Z" fill="#FFFDF2"/>
<path d="M19.5475 13.2239C19.5626 13.0064 19.3313 12.8403 19.1497 12.9292L19.1324 12.9385C18.9097 13.0508 18.9249 13.4461 19.1735 13.5139C19.3486 13.577 19.5453 13.4227 19.5475 13.2239Z" fill="#FFFDF2"/>
<path d="M13.6821 14.9523C13.241 15.109 13.6172 15.778 13.935 15.4084C14.0777 15.2236 13.922 14.9126 13.6994 14.95H13.7015L13.6821 14.9523Z" fill="#FFFDF2"/>
<path d="M13.9115 10.9365C13.7883 10.8289 13.5743 10.9014 13.5094 11.0628C13.3927 11.3224 13.6651 11.5867 13.8878 11.4253L13.9051 11.4136C14.0477 11.3037 14.0477 11.0487 13.9094 10.9365H13.9115Z" fill="#FFFDF2"/>
<path d="M16.3477 15.7546C16.6893 15.8622 16.7498 15.3078 16.3974 15.3172L16.3779 15.3219C16.1747 15.3663 16.1553 15.675 16.3477 15.7546Z" fill="#FFFDF2"/>
<path d="M16.5015 11.0581C16.748 10.9365 16.6139 10.5459 16.3523 10.6254L16.3329 10.6324C16.0691 10.7564 16.2291 11.1844 16.5015 11.0581Z" fill="#FFFDF2"/>
<path d="M16.949 12.9783C16.7523 13.0227 16.7436 13.3431 16.9317 13.411C17.2582 13.5115 17.3014 12.9596 16.9706 12.9736L16.9512 12.9783H16.949Z" fill="#FFFDF2"/>
<path d="M14.9773 13.1046L14.9665 13.0859C14.8865 12.9596 14.6833 13.0063 14.6812 13.1794C14.6984 13.4461 15.0854 13.3689 14.9773 13.1069V13.1046Z" fill="#FFFDF2"/>
<path d="M12.6748 13.0929H12.6726C12.5256 13.0836 12.5169 13.3221 12.6726 13.3104C12.7829 13.3034 12.798 13.128 12.6921 13.0976L12.6748 13.0929Z" fill="#FFFDF2"/>
<path d="M9.02972 1.64627C9.48155 1.76322 9.95933 1.33988 9.96149 0.851052V0.830003C9.96149 0.0488135 8.98433 -0.313716 8.55411 0.338835C8.20821 0.804274 8.49574 1.54103 9.02757 1.64862L9.02972 1.64627Z" fill="#FFFDF2"/>
<path d="M5.34812 4.4577H5.34595C5.78914 4.5536 6.25395 4.13728 6.25828 3.6578V3.63675C6.26044 2.84387 5.28543 2.49069 4.85305 3.14792C4.50282 3.62272 4.80116 4.37116 5.34812 4.4577Z" fill="#FFFDF2"/>
<path d="M2.82514 7.58249C3.27698 7.69944 3.75475 7.2761 3.75691 6.78727V6.76622C3.75691 5.98503 2.77974 5.6225 2.34952 6.27505C2.00362 6.74049 2.29115 7.47724 2.82298 7.58483L2.82514 7.58249Z" fill="#FFFDF2"/>
<path d="M0.178932 10.602H0.176781C-0.173445 11.0768 0.124891 11.8252 0.671849 11.9117C1.11504 12.0076 1.57984 11.5913 1.58416 11.1118V11.0908C1.58632 10.2979 0.611309 9.94474 0.178932 10.602Z" fill="#FFFDF2"/>
<path d="M0.153053 15.357H0.150902C-0.199324 15.8318 0.099012 16.5802 0.64597 16.6667C1.08916 16.7626 1.55396 16.3463 1.55828 15.8668V15.8458C1.56044 15.0529 0.585431 14.6997 0.153053 15.357Z" fill="#FFFDF2"/>
<path d="M2.343 19.0594H2.34084C1.99061 19.5342 2.28896 20.2827 2.83592 20.3692C3.27911 20.4651 3.74391 20.0488 3.74823 19.5693V19.5482C3.75039 18.7554 2.77538 18.4022 2.343 19.0594Z" fill="#FFFDF2"/>
<path d="M4.9221 22.4321H4.91995C4.56972 22.9069 4.86805 23.6553 5.41501 23.7419C5.8582 23.8378 6.323 23.4215 6.32732 22.942V22.9209C6.32949 22.128 5.35447 21.7749 4.9221 22.4321Z" fill="#FFFDF2"/>
<path d="M8.36808 24.8576C8.02218 25.323 8.30971 26.0597 8.84153 26.1673C9.29337 26.2843 9.77114 25.8609 9.77331 25.3721V25.3511C9.77331 24.5699 8.79614 24.2073 8.36593 24.8599L8.36808 24.8576Z" fill="#FFFDF2"/>
<path d="M12.4954 25.0703H12.4932C12.143 25.5451 12.4413 26.2936 12.9883 26.3801C13.4314 26.476 13.8963 26.0597 13.9006 25.5802V25.5592C13.9027 24.7663 12.9277 24.4131 12.4954 25.0703Z" fill="#FFFDF2"/>
<path d="M16.3713 24.8645H16.3692C16.0189 25.3393 16.3173 26.0878 16.8642 26.1743C17.3074 26.2702 17.7722 25.8539 17.7766 25.3744V25.3534C17.7787 24.5605 16.8037 24.2073 16.3713 24.8645Z" fill="#FFFDF2"/>
<path d="M19.3573 22.6192C19.0114 23.0846 19.299 23.8214 19.8308 23.929C20.2826 24.0459 20.7604 23.6226 20.7626 23.1338V23.1127C20.7626 22.3315 19.7854 21.969 19.3552 22.6215L19.3573 22.6192Z" fill="#FFFDF2"/>
<path d="M22.345 18.9939H22.3471C21.9926 19.0337 21.798 19.5272 22.0315 19.8219C22.2931 20.2031 22.8811 19.9973 22.8941 19.5295V19.5085C22.9006 19.2138 22.6217 18.9495 22.345 18.9962V18.9939Z" fill="#FFFDF2"/>
<path d="M24.0397 15.4926H24.0375C23.8451 15.6914 23.9208 16.0563 24.1629 16.1568C24.3942 16.2715 24.6839 16.068 24.6948 15.8013V15.7803C24.7056 15.4271 24.2602 15.2283 24.0375 15.4949L24.0397 15.4926Z" fill="#FFFDF2"/>
<path d="M24.1693 11.1282C23.9337 11.2358 23.871 11.5937 24.0612 11.7831C24.2774 12.0334 24.699 11.8556 24.7076 11.5188V11.4978C24.7141 11.2171 24.4071 10.9996 24.1693 11.1282Z" fill="#FFFDF2"/>
<path d="M22.8034 7.14512V7.12407C22.8098 6.74283 22.3126 6.55571 22.1051 6.87146C21.7397 7.48425 22.7061 7.8655 22.8034 7.14512Z" fill="#FFFDF2"/>
<path d="M19.8303 4.47875H19.8325C20.1979 4.59803 20.6021 4.25889 20.6043 3.8566V3.83555C20.6086 3.22276 19.8303 2.92572 19.4888 3.43326C19.2142 3.79345 19.4109 4.37584 19.8303 4.48109V4.47875Z" fill="#FFFDF2"/>
<path d="M16.8794 1.68378H16.8772C17.3204 1.77967 17.7852 1.36335 17.7895 0.883877V0.862827C17.7917 0.0699432 16.8167 -0.283232 16.3843 0.373996C16.0341 0.848791 16.3324 1.59724 16.8794 1.68378Z" fill="#FFFDF2"/>
<path d="M12.9624 1.65338H12.9602C13.4034 1.74927 13.8682 1.33295 13.8725 0.853479V0.832429C13.8747 0.0395452 12.8997 -0.313627 12.4673 0.343602C12.1171 0.818397 12.4154 1.56684 12.9624 1.65338Z" fill="#FFFDF2"/>
</svg>
