<svg width="86" height="35" viewBox="0 0 86 35" fill="none" xmlns="http://www.w3.org/2000/svg">
<path d="M38.2847 10.6279L45.8859 17.2283V4.31992L42.9565 4.29887V10.2654L35.3467 4.11877V17.1932H38.2955L38.2847 10.6279Z" fill="#FFFDF2"/>
<path d="M48.8068 16.8494C49.5699 17.2797 50.3806 17.4972 51.2389 17.4972C51.8896 17.4972 52.5122 17.3733 53.1068 17.123C53.1911 17.0926 53.3229 17.0341 53.5024 16.9499V17.2236L56.1702 17.2493L56.1788 12.5061C56.1788 11.7974 56.0469 11.1355 55.7832 10.5203C55.5259 9.92625 55.1606 9.4 54.6893 8.9369C54.2396 8.48784 53.7121 8.14168 53.1068 7.89844C52.5014 7.65519 51.8788 7.53357 51.2389 7.53357C50.2812 7.53357 49.972 7.65753 49.371 7.90779C48.77 8.14402 48.2447 8.4855 47.7885 8.9369C47.328 9.38597 46.9648 9.91222 46.7032 10.5203C46.4395 11.1355 46.3076 11.795 46.3076 12.5061C46.3076 13.4463 46.5346 14.3 46.9908 15.0625C47.4404 15.8156 48.0458 16.4097 48.8089 16.8494H48.8068ZM49.304 11.3319C49.5094 10.9741 49.7969 10.6794 50.1385 10.4736C50.4865 10.2654 50.8541 10.1648 51.241 10.1648C51.628 10.1648 52.0085 10.2677 52.3523 10.4736C52.7003 10.6864 52.977 10.9717 53.1867 11.3319C53.3921 11.6828 53.5024 12.0897 53.5002 12.5061C53.5002 13.1492 53.2754 13.7036 52.8257 14.1737C52.3825 14.6344 51.855 14.866 51.2432 14.866C50.6314 14.866 50.1125 14.6344 49.6694 14.1737C49.2197 13.7059 48.9948 13.1492 48.9948 12.5061C48.9948 12.0827 49.0986 11.6898 49.3083 11.3319" fill="#FFFDF2"/>
<path d="M57.954 13.6989C57.954 14.5689 58.0902 15.28 58.3647 15.839C58.6393 16.4026 59.0479 16.826 59.584 17.1066C60.1159 17.385 60.786 17.5253 61.5859 17.5253C61.72 17.5253 61.8583 17.5136 61.9967 17.4902L62.7707 14.5947C62.6085 14.6742 62.3729 14.714 62.0637 14.714C61.1103 14.714 60.6325 14.3023 60.6325 13.4767V10.3917H61.8194L62.4183 7.89609H60.6325V4.32694L57.9475 4.30823V7.89375H56.7757L56.1704 10.3893H57.9475V13.7036H57.954V13.6989Z" fill="#FFFDF2"/>
<path d="M68.0952 13.3247C68.0952 14.328 67.7515 14.8379 67.0705 14.8637H66.9191C66.2338 14.8403 65.8944 14.3257 65.8944 13.3247V7.89844H63.2007V13.3247C63.2007 15.9653 64.4394 17.3593 66.9213 17.5043H67.0726C69.5523 17.3593 70.7932 15.9653 70.7932 13.3247V7.89844H68.0995V13.3247H68.093H68.0952Z" fill="#FFFDF2"/>
<path d="M73.9019 11.7061C73.9019 10.7028 74.2457 10.1905 74.9267 10.1578H75.078C75.3028 10.1695 75.4844 10.228 75.6271 10.3309V7.58034C75.4498 7.54994 75.2661 7.53357 75.078 7.52655H74.9267C72.447 7.65987 71.2061 9.05385 71.2061 11.7061V17.2236H73.8998V11.7061H73.9019Z" fill="#FFFDF2"/>
<path d="M85.5244 10.5227C85.2671 9.92858 84.9018 9.40232 84.4305 8.93922C83.9808 8.49016 83.4533 8.144 82.848 7.90076C82.2426 7.65751 81.62 7.53589 80.9801 7.53589C80.0224 7.53589 79.7132 7.65985 79.1122 7.91011C78.5112 8.14634 77.9859 8.48782 77.5297 8.93922C77.0692 9.38829 76.706 9.91454 76.4445 10.5227C76.1807 11.1378 76.0488 11.7973 76.0488 12.5084C76.0488 13.4486 76.2758 14.3023 76.732 15.0648C77.1817 15.8179 77.787 16.412 78.5501 16.8517C79.3133 17.2821 80.124 17.4996 80.9823 17.4996C81.633 17.4996 82.2556 17.3756 82.8501 17.1253C82.9344 17.0949 83.0663 17.0365 83.2458 16.9523V17.2259L85.9135 17.2516L85.9222 12.5084C85.9222 11.7997 85.7903 11.1378 85.5265 10.5227H85.5244ZM82.5626 14.1713C82.1194 14.6321 81.5919 14.8636 80.9801 14.8636C80.3683 14.8636 79.8494 14.6321 79.4062 14.1713C78.9566 13.7035 78.7317 13.1469 78.7317 12.5037C78.7317 12.0804 78.8355 11.6874 79.0452 11.3296C79.2506 10.9717 79.5381 10.677 79.8797 10.4712C80.2278 10.263 80.5953 10.1625 80.9823 10.1625C81.3692 10.1625 81.7497 10.2654 82.0935 10.4712C82.4415 10.684 82.7183 10.9694 82.928 11.3296C83.1333 11.6804 83.2436 12.0874 83.2414 12.5037C83.2414 13.1469 83.0166 13.7012 82.5669 14.1713" fill="#FFFDF2"/>
<path d="M43.1016 19.3123H35.0161L35.749 22.2522H38.0471V32.2323H40.9764V22.2522H43.8128L43.1059 19.3123H43.1016Z" fill="#FFFDF2"/>
<path d="M50.0801 23.9456C49.6304 23.4918 49.1224 23.1457 48.556 22.9071C47.9831 22.6639 47.3886 22.5422 46.7703 22.5422C45.845 22.5422 45.5553 22.6639 44.9759 22.9071C44.4138 23.1433 43.9101 23.4918 43.4626 23.9549C43.0194 24.4017 42.6648 24.9396 42.4184 25.5384C42.1654 26.1395 42.04 26.7967 42.04 27.5054C42.04 28.4526 42.2584 29.3063 42.6951 30.0618C43.121 30.8219 43.7025 31.4183 44.4354 31.8557C45.1532 32.2861 45.9293 32.5036 46.7659 32.5036C47.3821 32.5036 47.9787 32.382 48.5516 32.1387C48.9775 31.9516 49.3991 31.6733 49.812 31.3107L48.3636 29.0701L48.3463 29.0958L48.3225 29.1215L48.2987 29.1566L48.2814 29.1753C47.8534 29.6361 47.3496 29.8676 46.7681 29.8676C46.1865 29.8676 45.685 29.6361 45.2548 29.1753C44.911 28.8034 44.7057 28.3661 44.6408 27.8562H50.4303V27.8375H51.4745L51.4918 27.6831C51.4983 27.648 51.5005 27.613 51.5005 27.5825V27.4983C51.5005 26.8014 51.3751 26.1465 51.1221 25.5313C50.8692 24.9115 50.5211 24.3806 50.0779 23.9386H50.0801V23.9456ZM45.1207 26.0482C45.3131 25.805 45.5077 25.6179 45.7109 25.4846C46.0417 25.2764 46.3962 25.1758 46.7724 25.1758C47.1486 25.1758 47.501 25.2787 47.8339 25.4846C48.0371 25.6179 48.2317 25.805 48.4241 26.0482H45.1229H45.1207Z" fill="#FFFDF2"/>
<path d="M56.8684 29.9471C56.4187 29.9471 56.0231 29.8279 55.6815 29.5916C55.3356 29.3694 55.0589 29.0443 54.8816 28.6537C54.6957 28.2585 54.6049 27.8141 54.6049 27.3159C54.6049 26.6774 54.8211 26.1441 55.2513 25.7137C55.6772 25.2834 56.2004 25.0659 56.8165 25.0659C57.1473 25.0659 57.4608 25.1197 57.7591 25.2296C58.0445 25.3395 58.3082 25.5032 58.5482 25.7231L59.9448 23.6649C59.5254 23.3 59.039 23.017 58.4877 22.8205C57.945 22.6287 57.3851 22.5305 56.8122 22.5305C56.1096 22.5305 55.4567 22.6545 54.8514 22.9047C54.2396 23.1597 53.7207 23.5105 53.2948 23.9526C52.8624 24.4063 52.5252 24.9559 52.2766 25.5898C52.0344 26.2166 51.9155 26.9136 51.9155 27.6831C51.9155 28.5251 52.1166 29.318 52.5144 30.0594C52.9122 30.7891 53.4851 31.3762 54.2309 31.8253C54.9768 32.2673 55.8372 32.4895 56.8144 32.4895C57.1624 32.4895 57.5408 32.4451 57.9494 32.3539C58.358 32.2626 58.7579 32.1223 59.1449 31.9352C59.5254 31.7481 59.8259 31.5306 60.0356 31.2873L58.5633 29.2665C58.092 29.7203 57.5235 29.9495 56.8641 29.9495H56.8706L56.8684 29.9471Z" fill="#FFFDF2"/>
<path d="M65.2957 22.5329C64.8979 22.5329 64.5066 22.6171 64.1175 22.7785C63.737 22.9422 63.4148 23.1667 63.1576 23.452V19.3029L60.4639 19.3122V32.2486L63.1576 32.2299V26.8388C63.1576 26.2821 63.2786 25.8634 63.5186 25.5828C63.7543 25.3045 64.0807 25.1641 64.4958 25.1641C64.9109 25.1641 65.2525 25.3045 65.4881 25.5828C65.7237 25.8611 65.8426 26.2798 65.8426 26.8388V32.2369L68.5364 32.2276V26.6376C68.5364 23.8988 67.4554 22.5329 65.2957 22.5329Z" fill="#FFFDF2"/>
<path d="M7.87576 20.7717C7.22287 19.9952 6.56782 19.221 5.90412 18.4539C5.84358 18.386 5.71387 18.358 5.61875 18.358C4.99612 18.358 4.3735 18.3767 3.75304 18.3814C3.61684 18.3814 3.53036 18.4141 3.44821 18.5591C3.19527 18.9988 2.60291 19.0316 2.29376 18.6457C1.99758 18.2785 2.0365 17.7475 2.37808 17.4411C2.71749 17.1394 3.16717 17.2072 3.45902 17.5978C3.51091 17.6657 3.58873 17.7616 3.65575 17.7639C4.2092 17.7779 4.76696 17.7733 5.35932 17.7733C5.08692 17.4505 4.83182 17.1581 4.59401 16.8541C4.49457 16.7301 4.40377 16.702 4.25892 16.7395C3.88275 16.8307 3.51955 16.6272 3.33579 16.2436C3.16068 15.8811 3.22554 15.4344 3.49577 15.1584C3.78979 14.859 4.20271 14.8075 4.54429 15.0297C4.88803 15.2519 5.05882 15.6636 4.9464 16.0612C4.90316 16.2179 4.92694 16.3138 5.02639 16.4284C5.89331 17.4598 6.7559 18.496 7.62066 19.5321C7.72443 19.6561 7.83252 19.7753 7.94494 19.904C7.9644 19.8619 7.97521 19.8502 7.97521 19.8362C7.97521 18.0984 7.97521 16.3559 7.96872 14.6181C7.96872 14.5479 7.89738 14.438 7.83468 14.4076C7.12126 14.0872 6.41648 13.7433 5.68793 13.4767C4.25676 12.9505 2.77586 12.6558 1.27768 12.4453C0.869079 12.3891 0.45832 12.347 0 12.2909C0.0497234 13.2545 0.07999 14.1807 0.151332 15.1022C0.328607 17.3944 0.797737 19.6023 1.78572 21.6605C2.92936 24.0462 4.51402 25.9851 6.64997 27.3767C7.06937 27.6504 7.5104 27.8819 7.94926 28.1369C7.96872 28.0714 7.97737 28.0574 7.97737 28.0387C7.97737 25.7021 7.97737 23.3609 7.97088 21.022C7.97088 20.9354 7.93197 20.8302 7.87792 20.7647V20.7717H7.87576ZM5.50849 24.9513C5.10638 24.9513 4.81669 24.6332 4.81236 24.1865C4.80588 23.7795 5.12584 23.4427 5.50849 23.4451C5.87817 23.4451 6.19165 23.7959 6.19381 24.2099C6.2003 24.6379 5.90628 24.9537 5.50633 24.9537H5.50849V24.9513ZM6.00789 21.9856C5.6382 22.1587 5.22312 22.0698 4.99612 21.7003C4.84912 21.4593 4.68049 21.4196 4.45133 21.436C4.2546 21.45 4.0557 21.443 3.85897 21.443C3.61468 21.443 3.39633 21.4126 3.21905 21.7073C3.07637 21.9435 2.78667 21.9575 2.53157 21.8546C2.2635 21.747 2.10136 21.457 2.10352 21.1389C2.10352 20.8255 2.28728 20.5519 2.56616 20.4536C2.84072 20.3554 3.12825 20.4653 3.31417 20.7179C3.3639 20.7834 3.45037 20.8489 3.52172 20.8512C3.90869 20.8606 4.29567 20.8606 4.68265 20.8419C4.75183 20.8419 4.84479 20.7717 4.87938 20.7015C5.07395 20.325 5.44796 20.1285 5.83926 20.2151C6.18732 20.2922 6.49431 20.6571 6.52674 21.036C6.56565 21.464 6.37325 21.8102 6.01221 21.9786H6.00573L6.00789 21.9856Z" fill="#FFFDF2"/>
<path d="M27.7607 15.3572C27.6893 15.432 27.5704 15.4858 27.471 15.4928C27.1143 15.5232 26.7575 15.5349 26.4008 15.5396C26.2365 15.5396 26.1544 15.584 26.1047 15.7805C25.9836 16.2529 25.5037 16.5406 25.0842 16.3909C24.8594 16.3114 24.7254 16.3722 24.5697 16.5336C23.1169 18.0469 21.6577 19.5531 20.1897 21.0524C20.0773 21.167 19.9173 21.2582 19.7638 21.2956C19.3012 21.4172 18.8277 21.5038 18.3651 21.6137C18.2916 21.6324 18.1986 21.6932 18.164 21.761C17.9284 22.2896 17.4593 22.4884 16.9491 22.2779C16.8539 22.2405 16.7242 22.2358 16.6226 22.2662C16.2573 22.3738 15.8984 22.5095 15.533 22.6171C15.3968 22.6545 15.3514 22.7176 15.3557 22.8673C15.3644 23.5222 15.3557 24.1818 15.3622 24.8367C15.3622 24.984 15.373 25.1337 15.3817 25.3208C15.6368 25.0355 15.8638 24.7876 16.093 24.5326C16.0713 24.4882 16.0497 24.4461 16.0303 24.4017C15.9005 24.0882 15.9827 23.7397 16.2356 23.5479C16.5037 23.3398 16.8604 23.3679 17.0809 23.6345C17.1847 23.7631 17.2777 23.7795 17.416 23.7351C17.5306 23.6976 17.6582 23.693 17.7706 23.6462C17.8419 23.6158 17.9219 23.5456 17.9522 23.4708C18.1165 23.0498 18.6094 22.8486 18.9229 23.1503C19.1499 23.3702 19.3444 23.3234 19.5758 23.2649C19.7898 23.2135 20.006 23.169 20.2178 23.1012C20.2978 23.0755 20.3886 23.0007 20.4254 22.9211C20.581 22.6124 20.8578 22.4697 21.1885 22.5165C21.2772 22.5282 21.4004 22.4955 21.4609 22.4323C22.2997 21.5669 23.1299 20.6875 23.9665 19.8198C24.0617 19.7192 24.0811 19.6514 24.0184 19.511C23.8433 19.1134 24.0292 18.6456 24.4033 18.503C24.801 18.3486 25.2183 18.5942 25.3242 19.0456C25.4258 19.4853 25.1729 19.8969 24.7643 19.9765C24.6821 19.9952 24.587 20.0279 24.5286 20.0887C23.6639 20.9962 22.8056 21.9131 21.9409 22.8206C21.796 22.9749 21.7052 23.1223 21.6858 23.3585C21.6447 23.845 21.0761 24.1537 20.7259 23.8567C20.4902 23.6602 20.2957 23.6976 20.0622 23.7561C19.8265 23.8193 19.5887 23.8637 19.3552 23.9339C19.2731 23.9596 19.1845 24.0298 19.1391 24.1069C18.9142 24.4812 18.5143 24.5747 18.1748 24.3174C18.1251 24.2824 18.0603 24.2052 18.0278 24.2169C17.7381 24.3315 17.3728 24.2239 17.1566 24.5817C17.0788 24.7104 16.8993 24.7618 16.761 24.8437C16.7026 24.8764 16.6205 24.8764 16.5772 24.9209C16.1967 25.3208 15.8206 25.7255 15.4509 26.1371C15.4011 26.1932 15.373 26.2938 15.373 26.378C15.373 28.8736 15.373 31.3669 15.3795 33.8625C15.3795 34.0168 15.3968 34.1689 15.4033 34.3139C15.8897 34.4144 15.9243 34.3817 15.9243 33.9233L15.9157 29.8863C15.9157 29.6197 15.9395 29.4069 16.1643 29.187C17.2409 28.1158 18.2873 27.0072 19.3401 25.9056C19.405 25.8377 19.4547 25.7372 19.4806 25.6413C19.5693 25.2624 19.8352 25.0519 20.1616 25.122C20.4773 25.1899 20.661 25.4846 20.6048 25.8377C20.5551 26.1722 20.2978 26.3499 19.9476 26.3266C19.859 26.3195 19.7444 26.3593 19.6817 26.4248C18.9575 27.1615 18.2419 27.9053 17.5263 28.6538C17.3101 28.8783 17.1047 29.1145 16.8756 29.3624C20.9442 29.1215 24.2843 27.4095 26.7575 23.8684C26.7186 23.8777 26.6776 23.8871 26.6365 23.9011C25.3415 24.4133 24.0509 24.9302 22.7537 25.4378C22.611 25.4939 22.5289 25.5617 22.5159 25.7372C22.4986 25.9687 22.3732 26.1277 22.1852 26.233C21.876 26.4014 21.5171 26.2915 21.329 25.9757C21.1366 25.653 21.1928 25.2437 21.4696 25.0004C21.5885 24.8975 21.729 24.8273 21.8371 24.7151C22.6024 23.9058 23.3612 23.0919 24.1157 22.2733C24.1698 22.2148 24.2195 22.1049 24.2152 22.023C24.1719 21.4406 24.5632 21.0477 25.0345 20.9705C25.0972 20.9588 25.1794 20.9471 25.2183 20.9027C25.5166 20.5565 25.8085 20.2033 26.1003 19.8525C25.5728 19.2374 25.7825 18.662 26.6386 18.3907C26.6473 18.1779 26.6386 17.951 26.6711 17.7358C26.6927 17.6025 26.7489 17.4481 26.8354 17.3569C27.9682 16.1594 29.1118 14.9689 30.249 13.7761C30.2922 13.7316 30.3528 13.6802 30.3593 13.6287C30.4068 13.2755 30.4414 12.9224 30.4846 12.5131C30.4219 12.5762 30.4003 12.5926 30.3809 12.6136C29.5118 13.5305 28.6449 14.4497 27.7736 15.3618L27.7671 15.3688L27.7607 15.3572Z" fill="#FFFDF2"/>
<path d="M30.3938 5.03333L29.6803 5.75604C26.6991 8.7662 23.7157 11.7787 20.7388 14.7959C20.6609 14.873 20.6047 15.0134 20.5961 15.1256C20.542 15.7922 19.8394 16.2085 19.3314 15.825C19.113 15.6589 18.9336 15.6566 18.7152 15.7338C18.6569 15.7548 18.5963 15.7712 18.538 15.7759C18.4061 15.7852 18.352 15.853 18.3153 15.9957C18.164 16.5734 17.5911 16.7231 17.1911 16.3021C17.1327 16.2436 17.0203 16.2015 16.9468 16.2179C16.4734 16.3255 16.0042 16.4611 15.5286 16.5687C15.3989 16.5991 15.373 16.6576 15.3751 16.7792C15.3773 17.3616 15.3751 17.944 15.3773 18.5264C15.3773 18.6106 15.3903 18.6948 15.3989 18.7883C16.3999 18.5334 17.3727 18.2902 18.3434 18.0352C18.4147 18.0165 18.4969 17.9323 18.525 17.8575C18.6374 17.5558 18.845 17.3897 19.126 17.3125C19.4503 17.2236 19.7205 17.3359 19.967 17.5862C20.5312 17.0155 21.089 16.4588 21.6403 15.8951C23.5492 13.9492 25.4582 12.0009 27.3693 10.0573C27.512 9.91225 27.5963 9.76256 27.6265 9.54739C27.6914 9.09832 28.0676 8.76152 28.4826 8.73813C28.9648 8.70772 29.3582 8.98371 29.5074 9.45617C29.6414 9.87951 29.4879 10.3754 29.142 10.628C28.7637 10.9039 28.3011 10.8806 27.9638 10.5648C27.9249 10.5297 27.8816 10.4993 27.8341 10.4642C27.7692 10.5274 27.713 10.5835 27.659 10.6373C25.2074 13.1352 22.7558 15.6308 20.3107 18.1311C20.2675 18.1756 20.2286 18.2457 20.2199 18.3112C20.1659 18.7275 19.9648 19.0152 19.593 19.1298C19.2017 19.2514 18.8817 19.1064 18.6244 18.772C18.5747 18.7065 18.458 18.6527 18.3866 18.6714C17.3835 18.9076 16.3826 19.1602 15.3903 19.4082V22.0581C15.7643 21.9271 16.108 21.8055 16.4561 21.6839C16.4561 21.4851 16.4323 21.3073 16.4626 21.1436C16.5361 20.753 16.776 20.5028 17.1306 20.4279C17.5197 20.3484 17.8526 20.47 18.0796 20.8442C18.138 20.9354 18.1683 21.0524 18.3153 21.0173C18.7433 20.9144 19.1757 20.8255 19.6038 20.7179C19.6859 20.6969 19.7638 20.622 19.8264 20.5589C21.3203 19.0222 22.812 17.4786 24.3102 15.9466C24.4118 15.8437 24.4205 15.7548 24.3924 15.6262C24.3037 15.2075 24.4767 14.8122 24.8334 14.59C25.1685 14.3819 25.6484 14.4029 25.8819 14.721C26.0765 14.9876 26.2905 14.9666 26.537 14.9432C26.7639 14.9198 26.9931 14.9128 27.2179 14.8777C27.3217 14.859 27.4406 14.8099 27.5141 14.7327C28.4935 13.7153 29.4663 12.6909 30.4348 11.6617C30.4975 11.5963 30.5473 11.4816 30.5473 11.3881C30.5537 9.92862 30.5602 8.46916 30.5386 7.00969C30.53 6.37585 30.4543 5.74201 30.4024 5.04268H30.3959L30.3938 5.03333ZM27.2504 13.5913C26.9261 13.5913 26.6753 13.3036 26.6753 12.9388C26.6753 12.5739 26.9326 12.2839 27.2763 12.2862C27.6157 12.2862 27.8708 12.5622 27.8687 12.9201C27.8687 13.3083 27.6049 13.5937 27.2547 13.5913H27.2525H27.2504Z" fill="#FFFDF2"/>
<path d="M12.7594 25.7231C13.0231 25.7489 13.2479 25.9991 13.2177 26.2938C13.1961 26.502 13.2674 26.6283 13.3906 26.7616C13.609 26.9978 13.8187 27.2504 14.0651 27.5334C14.0738 27.4258 14.0759 27.3861 14.0759 27.3463C14.0759 26.212 14.0932 25.0823 14.0695 23.9503C14.0457 22.5539 13.7214 21.2301 13.1723 19.9695C12.5107 18.4468 11.5379 17.1932 10.3359 16.1454C9.79108 15.6706 9.20088 15.2543 8.58042 14.7748C8.56961 14.9081 8.56313 14.9408 8.56313 14.9736C8.56313 19.3801 8.56313 23.7842 8.55664 28.1907C8.55664 28.338 8.61069 28.3965 8.72311 28.4316C9.16413 28.5766 9.60299 28.738 10.0505 28.8643C10.9585 29.1192 11.8795 29.2876 12.8891 29.3531C12.4199 28.8245 11.9919 28.345 11.5682 27.8632C11.4774 27.9006 11.4082 27.9334 11.3368 27.9591C10.8439 28.1345 10.3553 27.9006 10.1759 27.3978C10.0029 26.909 10.217 26.4108 10.6904 26.1675C10.7488 26.1371 10.8007 26.0225 10.8007 25.9477C10.8072 24.8741 10.8007 23.7959 10.8007 22.7223C10.8007 22.5797 10.7661 22.5142 10.6277 22.4651C10.2256 22.32 9.98349 21.8172 10.0829 21.3798C10.1716 20.9845 10.4894 20.6875 10.8569 20.6594C11.2676 20.6244 11.6417 20.8676 11.78 21.2605C11.9141 21.6324 11.793 22.0768 11.4968 22.3505C11.4363 22.4066 11.3606 22.4955 11.3606 22.5703C11.3606 23.7281 11.3671 24.8835 11.3822 26.0412C11.3822 26.1114 11.4406 26.2049 11.4946 26.2494C11.7714 26.4622 11.9011 26.7452 11.8946 27.1101C11.8946 27.199 11.9162 27.3112 11.9681 27.3721C12.4891 27.9802 13.0209 28.5742 13.5398 29.1847C13.6933 29.3648 13.8554 29.4046 14.0695 29.3414C14.0695 29.152 14.0522 28.9695 14.0716 28.7918C14.1019 28.5275 13.9938 28.3474 13.8295 28.1696C13.529 27.8445 13.235 27.5124 12.9496 27.1732C12.8242 27.0259 12.6967 26.916 12.5064 26.8739C12.247 26.8177 12.0892 26.5067 12.1389 26.2073C12.1908 25.8939 12.4437 25.6951 12.7529 25.7231V25.7302L12.7594 25.7231ZM10.8742 18.8912C10.5067 18.8889 10.2083 18.5474 10.2126 18.1404C10.2191 17.7545 10.5304 17.4364 10.9001 17.4435C11.2568 17.4505 11.566 17.7943 11.5573 18.1732C11.5465 18.6012 11.2676 18.8936 10.8742 18.8912ZM12.0221 23.5386C12.0308 23.1831 12.3075 22.9001 12.6448 22.9048C12.9799 22.9118 13.2479 23.2065 13.2458 23.5667C13.2436 23.9503 12.9518 24.2613 12.6102 24.245C12.2816 24.2333 12.0113 23.9105 12.02 23.5363H12.0221V23.5386Z" fill="#FFFDF2"/>
<path d="M17.0636 15.4437C17.269 15.0437 17.6906 14.9175 18.0516 15.1537C18.1662 15.2309 18.7996 15.163 18.8904 15.0554C18.9185 15.0227 18.9207 14.9666 18.925 14.9198C19.005 14.2766 19.5779 13.9117 20.1097 14.1924C20.287 14.2883 20.3843 14.2368 20.501 14.1175C21.0437 13.5679 21.5906 13.0206 22.129 12.471C24.7665 9.79528 27.404 7.11725 30.0479 4.44623C30.2295 4.26614 30.3117 4.09072 30.262 3.82876C30.2295 3.65335 30.2274 3.47092 30.2036 3.29082C30.1712 3.01249 30.1323 2.7365 30.0912 2.41608C29.5594 2.9587 29.0621 3.4639 28.5671 3.96676C27.2872 5.26952 26.0031 6.57229 24.7254 7.87973C24.6475 7.95691 24.5849 8.09958 24.5892 8.20951C24.6 8.79891 24.2952 9.13805 23.7396 9.14507C23.6661 9.14507 23.5753 9.17547 23.5234 9.22927C22.7278 10.0268 21.9409 10.8337 21.1496 11.636C21.0134 11.7763 20.9334 11.9096 20.9421 12.1412C20.9594 12.7072 20.5032 13.0183 20.0038 12.8195C19.9303 12.7891 19.8395 12.7844 19.7617 12.8008C19.1866 12.9411 18.6094 13.0814 18.0365 13.2358C17.9565 13.2568 17.87 13.3387 17.8311 13.4159C17.6409 13.7901 17.1998 13.9281 16.8777 13.7036C16.5405 13.472 16.4475 12.9668 16.6745 12.6277C16.9015 12.2885 17.3598 12.2418 17.6647 12.5154C17.7295 12.5739 17.8376 12.6347 17.9111 12.616C18.4516 12.492 18.9856 12.3493 19.5239 12.2114C19.5325 12.1646 19.5412 12.1342 19.5433 12.1014C19.6017 11.5073 19.9087 11.2571 20.4535 11.3366C20.5075 11.346 20.5832 11.3109 20.6264 11.2688C21.4307 10.4548 22.2284 9.64091 23.0305 8.82698C23.1191 8.7381 23.1213 8.67261 23.0888 8.55333C22.9051 7.88207 23.4131 7.31605 24.0487 7.4634C24.1136 7.47744 24.2152 7.45639 24.2649 7.40961C24.7167 6.96054 25.1621 6.50212 25.6096 6.04604C27.0299 4.58891 28.4503 3.13646 29.8663 1.67231C29.9355 1.60214 29.9961 1.46181 29.9853 1.36357C29.9377 0.90749 29.8663 0.453745 29.808 0C29.7756 0.109928 29.7777 0.217517 29.7539 0.318089C29.7366 0.376562 29.6848 0.439713 29.635 0.472457C29.5356 0.52859 29.4296 0.563674 29.3107 0.61513C29.2783 0.582385 29.2113 0.4631 29.1378 0.456083C29.034 0.444389 28.9238 0.512217 28.8027 0.551979C28.8827 0.608112 28.9627 0.664244 29.0556 0.729733C29.0275 0.781189 29.0038 0.816273 28.9908 0.858373C28.9713 0.912167 28.9735 0.982333 28.9432 1.02209C28.8589 1.12501 28.7616 1.21856 28.6687 1.31212C27.4342 2.56109 26.1976 3.81005 24.9675 5.06136C24.9178 5.11282 24.8681 5.19468 24.8681 5.26017C24.8789 5.91506 24.3579 6.36646 23.8131 6.2963C23.7417 6.28694 23.6466 6.31969 23.5947 6.37114C23.0305 6.95353 22.4684 7.54059 21.9106 8.13233C21.8566 8.1908 21.8112 8.27734 21.796 8.36154C21.7074 8.80359 21.5323 8.9907 21.1302 9.08893C21.0242 9.11466 20.9075 9.17547 20.8253 9.25733C20.2913 9.80229 19.7703 10.3636 19.2342 10.9133C19.1499 10.9998 19.0396 11.077 18.9272 11.1051C18.0214 11.3413 17.1177 11.5728 16.2075 11.7904C16.0476 11.8278 15.9805 11.9096 15.9351 12.0663C15.6887 12.9645 15.5201 13.879 15.4487 14.8145C15.4184 15.1934 15.4076 15.5747 15.3882 15.977C15.9287 15.8366 16.4302 15.7103 16.9274 15.5723C16.9815 15.5583 17.0399 15.4952 17.068 15.439V15.446L17.0636 15.4437Z" fill="#FFFDF2"/>
<path d="M17.764 10.7542C18.4364 10.6303 19.0028 10.3473 19.4589 9.77426C19.7573 9.39769 20.1205 9.0796 20.4469 8.7428C20.1313 8.05049 20.2545 7.69498 20.8858 7.40729C20.9355 7.38391 20.9852 7.29269 20.9874 7.22954C20.9982 6.89508 20.9874 6.55594 20.9982 6.22148C21.0004 6.07647 20.9701 5.96888 20.8685 5.85895C20.5723 5.53852 20.6047 5.08478 20.9204 4.79943C21.2144 4.53514 21.6489 4.60998 21.8781 4.95848C22.0964 5.29761 21.9992 5.742 21.6554 5.97823C21.6122 6.00864 21.5538 6.06711 21.5538 6.11155C21.5452 6.57933 21.5473 7.05179 21.5473 7.56634C22.1202 6.97694 22.6607 6.41794 23.2012 5.86129C23.1731 5.79814 23.1493 5.74902 23.1298 5.69523C22.985 5.31633 23.0563 4.87662 23.3028 4.62402C23.5817 4.33867 24.0205 4.24979 24.3556 4.45795C24.5156 4.55619 24.5934 4.50239 24.7015 4.39246C25.5987 3.47328 26.4959 2.5541 27.3952 1.63725C27.6676 1.35892 27.94 1.08293 28.2297 0.79291C28.1757 0.77186 28.1519 0.769522 28.1368 0.757828C28.0676 0.706372 28.0027 0.657253 27.9335 0.605798C27.9962 0.554342 28.0524 0.474822 28.1195 0.45845C28.3659 0.392961 28.6189 0.350862 28.8826 0.294728V0.0772095C28.1281 0.367232 27.3714 0.6479 26.6234 0.951956C24.3081 1.90155 22.1829 3.19495 20.3432 5.01227C18.8039 6.53489 17.5024 8.23994 16.5858 10.2771C16.4647 10.5437 16.3631 10.8197 16.2485 11.1051C16.3004 11.1121 16.3177 11.1168 16.3307 11.1144C16.8106 10.9905 17.2819 10.8385 17.7683 10.7496H17.7662L17.764 10.7542ZM18.4645 8.40367C18.7693 8.41302 19.0071 8.67965 19.0028 9.00476C18.9963 9.3439 18.7434 9.62223 18.4407 9.61989C18.1121 9.61755 17.8851 9.34624 17.8959 8.97201C17.9067 8.64925 18.1618 8.39431 18.4666 8.40132" fill="#FFFDF2"/>
<path d="M27.4667 19.3801C27.3154 19.3801 27.2441 19.4315 27.1835 19.5859C27.1338 19.7145 27.0365 19.8713 26.9263 19.9087C26.6128 20.0233 26.4744 20.3156 26.2734 20.5495C26.0831 20.7694 25.8994 20.9939 25.7178 21.2138C26.0766 21.7237 26.1091 22.1727 25.8237 22.5586C25.5189 22.9703 25.0087 23.0568 24.5028 22.7341C23.8672 23.4381 23.2273 24.1397 22.609 24.8274C22.5917 24.8274 22.6155 24.8297 22.6371 24.8203C24.1374 24.2333 25.6399 23.6462 27.136 23.0521C27.2138 23.0217 27.2916 22.9446 27.3305 22.8674C27.7737 22.0043 28.2191 21.1389 28.6493 20.2618C28.7855 19.9859 28.8806 19.6841 28.9974 19.3801C28.4677 19.3801 27.9683 19.3871 27.4711 19.3777H27.4689L27.4667 19.3801Z" fill="#FFFDF2"/>
<path d="M27.3284 17.7311C27.2809 17.7779 27.2355 17.8457 27.2268 17.9089C27.1987 18.1849 27.1879 18.4608 27.1685 18.7509C27.8149 18.7509 28.418 18.7415 29.0212 18.7579C29.1747 18.7602 29.2331 18.7018 29.2698 18.5567C29.4752 17.8036 29.7 17.0575 29.8924 16.3021C30.0178 15.8039 30.0978 15.2893 30.2016 14.7631C30.1519 14.7865 30.1367 14.7865 30.1281 14.7981C29.192 15.7781 28.2559 16.7558 27.322 17.7358H27.3241L27.3284 17.7311Z" fill="#FFFDF2"/>
<path d="M82.5451 21.1062C78.9088 21.0992 75.2725 21.1132 71.6362 21.0945C71.2774 21.0945 71.2406 21.2348 71.2449 21.5576C71.2557 24.3128 71.2471 27.0727 71.2514 29.8279C71.2514 31.5166 72.4988 32.8591 74.0684 32.8591H79.419C81.2588 32.8591 83.0964 32.8521 84.9362 32.8661C85.2215 32.8661 85.3123 32.7983 85.308 32.4755C85.2951 29.6712 85.3059 26.8715 85.2994 24.0672C85.2972 22.4651 84.0325 21.1038 82.5473 21.1038L82.5451 21.1062ZM75.7568 28.8713C75.7482 28.9157 75.7546 28.9602 75.746 29.0046C75.6163 29.7975 75.7849 29.6478 75.0607 29.6642C74.5591 29.6735 74.0597 29.6572 73.5582 29.6712C73.3204 29.6782 73.2036 29.6127 73.2036 29.3204C73.2144 27.9966 73.2123 26.6704 73.2036 25.3489C73.2036 25.0753 73.2836 24.977 73.5409 24.9841C74.5245 25.0098 74.3105 24.8601 74.3343 25.8354C74.3429 26.1488 74.3343 26.4669 74.3343 26.785C74.3343 27.2645 74.3451 27.7486 74.3321 28.2304C74.3235 28.4924 74.4208 28.5766 74.6499 28.5649C74.9266 28.5509 75.2055 28.5719 75.4844 28.5579C75.6984 28.5485 75.8022 28.6281 75.759 28.8713M79.5898 29.6829C79.4234 29.6829 79.2547 29.6759 79.0883 29.6829C78.9283 29.6899 78.8418 29.6268 78.7748 29.4584C78.5413 28.8643 78.537 28.869 77.8063 28.869C77.4258 28.7777 77.0928 28.8807 77.028 29.4584C76.9999 29.7086 76.8053 29.6829 76.6389 29.6806C75.666 29.6689 75.7092 29.8045 76.053 28.8152C76.4529 27.6621 76.868 26.5137 77.255 25.3559C77.3458 25.087 77.4582 24.977 77.7263 24.9887C78.5716 25.0262 78.3597 24.8414 78.6581 25.674C79.0796 26.8528 79.4817 28.0363 79.8925 29.2151C79.9984 29.5215 79.8968 29.6759 79.5877 29.6782V29.6852L79.5898 29.6829ZM83.438 29.1216C82.7721 29.8373 81.7301 29.9916 80.8913 29.5075C80.0395 29.014 79.5509 27.8936 79.7433 26.8692C79.9703 25.6647 80.8394 24.8882 81.916 24.8928C82.5689 24.8718 83.0618 25.1431 83.492 25.5875C83.6628 25.7652 83.6758 25.9079 83.4574 26.0436C83.3731 26.095 83.291 26.1558 83.2218 26.2284C83.0099 26.4505 82.8413 26.4599 82.5819 26.2471C82.1257 25.8705 81.5744 25.9336 81.1637 26.3266C80.7227 26.7499 80.6081 27.3627 80.8653 27.9217C81.1096 28.455 81.6004 28.7193 82.1452 28.6257C82.3311 28.593 82.4803 28.4924 82.6359 28.3918C82.7462 28.3217 82.8175 28.0971 82.9753 28.2047C83.2088 28.3614 83.4726 28.5041 83.6217 28.7614C83.7125 28.9181 83.5331 29.0257 83.4401 29.1239H83.438V29.1216Z" fill="#FFFDF2"/>
<path d="M77.9057 26.6283C77.7911 26.9908 77.7306 27.2341 77.6376 27.4609C77.5036 27.7907 77.5685 27.8913 77.9144 27.8913C78.2603 27.8913 78.2819 27.7627 78.1824 27.4796C78.1003 27.2458 78.0289 27.0072 77.9057 26.6283Z" fill="#FFFDF2"/>
</svg>
