<svg width="112" height="25" viewBox="0 0 112 25" fill="none" xmlns="http://www.w3.org/2000/svg">
<path d="M13.1444 17.0768C12.3856 16.1132 12.2407 15.3975 12.8569 14.3052C13.233 13.6363 12.9693 13.0375 12.4613 12.7335C11.6441 12.2423 10.8053 11.7792 9.94266 11.3886C8.44663 10.715 6.92898 10.0952 5.5324 9.19705C4.432 8.49071 3.4505 7.63701 2.79977 6.41143C2.33713 5.53669 2.13174 4.59411 2.09283 3.55798C2.01284 3.70066 1.93069 3.84099 1.84854 3.98366C0.525461 6.32723 -0.116614 8.8509 0.0174232 11.6131C0.0822799 12.9252 0.300634 14.1929 0.696259 15.4255C1.17836 16.9177 1.89612 18.2696 2.84735 19.4835C3.94127 20.8798 5.22326 21.9978 6.73226 22.8141C7.97751 23.4853 9.28545 23.9063 10.6734 24.1098C11.7976 24.2735 12.9023 24.2338 14.0135 24.0724C14.1497 24.0537 14.3248 23.8923 14.381 23.7543C14.5669 23.2819 14.7226 22.7977 14.8545 22.3042C15.2025 21.0038 15.0642 19.7688 14.3248 18.6579C13.9573 18.1082 13.5487 17.596 13.1444 17.0791V17.0768Z" fill="#FFFDF2"/>
<path d="M40.0168 12.5089C39.5822 12.0692 39.0742 11.7137 38.6591 11.3699C38.8537 11.136 39.0958 10.867 39.3142 10.577C40.2135 9.38416 40.3411 8.0393 39.9217 6.61959C39.3466 4.66428 37.5306 3.74743 35.8076 3.69598C33.3776 3.62347 30.9455 3.66791 28.5155 3.66323H28.1221V19.9045H35.4033C36.4475 19.9045 37.4571 19.7478 38.4365 19.3268C39.5974 18.8286 40.4102 17.9772 40.7713 16.6909C40.9637 16.0079 41.0048 15.2969 40.8988 14.5695C40.7842 13.7789 40.5508 13.0586 40.0168 12.5113V12.5089ZM31.6914 7.1552H31.6957C32.9452 7.19262 34.1689 7.13414 35.3644 7.29319C36.5491 7.45223 36.735 8.66378 36.214 9.41222C35.9589 9.77943 35.5503 9.91743 35.1634 9.94082C34.0889 10.004 33.0079 10.0063 31.9313 10.0133C31.8535 10.0133 31.7065 9.84726 31.7043 9.75137C31.687 8.91872 31.6935 8.08608 31.6935 7.15286L31.6914 7.1552ZM36.3091 16.2207C35.9589 16.3096 35.5936 16.3657 35.2347 16.3728C34.1667 16.3915 33.0944 16.3728 32.0265 16.3845C31.7714 16.3868 31.687 16.3003 31.6892 16.0219C31.7022 15.1659 31.6935 14.3099 31.6935 13.3954C32.6642 13.3954 33.5852 13.3696 34.5018 13.4047C35.1223 13.4281 35.7536 13.4796 36.3567 13.6246C37.0096 13.7789 37.3058 14.2701 37.2928 14.9227C37.282 15.5284 36.8929 16.0687 36.3091 16.2184V16.2207Z" fill="#FFFDF2"/>
<path d="M22.3088 3.47142H22.3067C21.4441 2.11487 20.3999 0.959454 19.1201 0.0613192C19.0293 -0.00183092 18.8671 -0.0182027 18.7655 0.0215584C18.331 0.201653 17.9116 0.414492 17.4835 0.606281C15.5702 1.46465 13.6397 2.28795 11.8583 3.45037C10.9265 4.05849 10.0272 4.71338 9.43049 5.73547C9.05864 6.37165 8.97216 7.04057 9.2078 7.77498C9.56235 8.88596 10.3839 9.48471 11.2854 9.94314C13.1662 10.8974 15.2114 11.2599 17.2154 11.7558C18.3958 12.0481 19.574 12.3405 20.6572 12.9556C21.6927 13.5427 21.9759 14.4946 21.3511 15.5635C20.9512 16.2464 20.4583 16.8663 19.987 17.4978C18.8477 19.0204 17.6802 20.5243 16.5496 22.0539C16.1799 22.5521 15.8859 23.1158 15.5594 23.6444C15.6178 23.6911 15.6286 23.7075 15.6351 23.7052C17.4662 23.1368 19.0855 22.1475 20.4885 20.7652C21.8895 19.3876 22.925 17.727 23.6276 15.8184C24.207 14.2467 24.4643 12.6071 24.4924 10.9278C24.5032 10.2332 24.3908 9.53149 24.2956 8.84152C24.0254 6.88387 23.3465 5.10163 22.3088 3.47142ZM14.7163 8.18663C14.6298 8.33398 14.3898 8.38778 14.2061 8.45794C14.1239 8.48835 14.0245 8.46262 13.9337 8.46262C13.0992 8.39947 12.2799 8.30358 11.6507 7.60659C11.333 7.25341 11.3632 7.08034 11.7805 6.93766C12.8268 6.57981 13.737 6.88387 14.5217 7.66506C14.645 7.78668 14.7725 8.09307 14.7163 8.18663ZM16.943 8.94677C16.9171 9.02863 16.8004 9.10815 16.7074 9.1292C16.1886 9.24615 15.5724 8.8345 15.3605 8.17493C15.5983 8.19131 15.8124 8.1609 15.9983 8.23107C16.2902 8.34334 16.569 8.50706 16.8393 8.67546C16.9041 8.71756 16.9647 8.8766 16.9409 8.94911H16.943V8.94677ZM17.4187 9.76304C17.8186 9.48705 18.3915 9.67416 18.5191 10.0928C18.1148 10.1419 17.7451 10.0928 17.4187 9.76304Z" fill="#FFFDF2"/>
<path d="M60.3361 7.94103H60.3382C59.8756 6.97507 59.2335 6.15879 58.4358 5.48753C57.1257 4.38825 55.6318 3.75675 53.9888 3.6936C51.9415 3.61642 49.8898 3.66553 47.8382 3.66086C47.4707 3.66086 47.2891 3.86434 47.2891 4.26897V19.9021H47.6869C49.6563 19.9021 51.6258 19.9045 53.5953 19.8998C53.9369 19.8998 54.2871 19.8881 54.6222 19.8203C55.9972 19.5466 57.2835 19.0461 58.3882 18.0778C59.4216 17.175 60.1956 16.085 60.6733 14.7355C61.1576 13.3626 61.2268 11.9592 61.0798 10.5185C60.9868 9.60164 60.7209 8.74561 60.3361 7.94337V7.94103ZM56.9052 13.9754H56.903C56.3517 15.2009 55.4048 15.926 54.1963 16.1365C53.3446 16.2839 52.4625 16.2113 51.5913 16.2347C51.3988 16.2394 51.2064 16.2347 51.0011 16.2347V7.33526C51.8853 7.33526 52.7543 7.32824 53.6212 7.33759C54.3022 7.34461 54.9357 7.56914 55.5151 7.95506C56.542 8.63568 57.0868 9.6531 57.2792 10.9184C57.4413 11.9803 57.3419 13.0024 56.9052 13.9754Z" fill="#FFFDF2"/>
<path d="M110.512 16.8429V16.8499C110.481 16.4569 110.525 16.0617 110.499 15.6687C110.475 15.3156 110.391 14.9647 110.337 14.6139L110.194 14.6326V16.5599C109.515 16.0102 109.744 15.3857 109.872 14.7589C109.807 14.7636 109.751 14.7659 109.675 14.7706C109.699 14.6607 109.72 14.5624 109.74 14.4665C109.69 14.4525 109.643 14.4408 109.593 14.4244C109.485 14.7051 109.593 15.0489 109.45 15.3366C109.381 15.3483 109.264 15.3694 109.173 15.3881C108.942 14.2093 108.949 13.0422 109.111 11.8961C108.849 11.9546 108.652 11.999 108.395 12.0575C108.352 11.0658 108.311 10.0648 108.265 9.06371C108.291 9.06371 108.32 9.05903 108.348 9.05669C108.358 9.18533 108.367 9.31163 108.378 9.43793H108.454C108.471 9.09177 108.49 8.74795 108.51 8.40414C108.547 8.40414 108.579 8.4018 108.616 8.39946C108.67 8.86256 108.745 9.32332 108.776 9.78642C108.806 10.2636 108.691 10.7571 108.905 11.2576C109.013 11.1172 109.093 11.0073 109.178 10.8997C108.923 10.6541 108.927 9.47301 109.232 8.91167C109.31 9.15726 109.394 9.32566 109.413 9.50341C109.448 9.81449 109.439 10.1349 109.452 10.4483C109.483 10.4483 109.515 10.453 109.548 10.4553C109.625 10.322 109.705 10.1911 109.79 10.0507C110.19 10.0343 110.419 9.68585 110.261 9.29292C110.211 9.34203 110.166 9.39115 110.114 9.4426C110.056 9.27187 110.001 9.1058 109.945 8.94208L110.014 8.90934C110.092 9.00757 110.172 9.1058 110.263 9.21339C110.572 8.43454 110.473 7.69545 110.246 6.86514C110.181 7.5481 110.125 8.13984 110.069 8.73158C109.911 8.22638 109.803 7.72586 109.762 7.21832C109.718 6.7061 109.746 6.18219 109.738 5.66763C109.738 5.6115 109.72 5.53198 109.686 5.50859C109.465 5.35188 109.234 5.20687 108.985 5.04315C108.657 5.60682 108.769 6.21026 108.7 6.75288L108.283 6.82305C108.268 6.2851 108.285 5.74482 108.22 5.21623C108.183 4.92387 108.054 4.60578 107.878 4.38592C107.701 4.16373 107.405 4.11461 107.13 4.26664C107.13 4.2643 107.13 4.26196 107.133 4.25728L107.128 4.2643C107.094 4.14034 107.061 4.01872 106.992 3.76378C106.88 3.95557 106.785 4.05614 106.756 4.17776C106.718 4.3485 106.731 4.53561 106.718 4.71571C106.741 4.84201 106.765 4.96831 106.789 5.09227C107.031 5.07356 106.975 4.87709 106.999 4.71337C107.02 4.56134 107.083 4.41633 107.13 4.26898C107.148 4.33681 107.189 4.41165 107.174 4.46778C107.016 5.02678 107.055 5.54835 107.169 6.13307C107.308 6.84644 107.204 7.61359 107.204 8.31526C106.979 8.12815 107.092 7.96209 106.951 7.644C106.75 7.19493 106.925 6.87918 106.977 6.50262C106.988 6.41608 106.836 6.30147 106.756 6.19388C107.012 5.86176 106.813 5.47818 106.787 5.10396C106.763 4.97766 106.739 4.85136 106.715 4.7274C106.7 4.56134 106.685 4.39294 106.666 4.22688L106.568 4.24091C106.568 4.79756 106.584 5.35422 106.566 5.90854C106.536 6.87216 106.469 7.83345 106.445 8.79473C106.439 9.09411 106.562 9.39349 106.568 9.69754C106.586 10.46 106.592 11.2225 106.56 11.9826C106.551 12.1721 106.378 12.3498 106.281 12.5346L106.149 12.4808V11.0307C106.173 11.0307 106.199 11.026 106.22 11.0237V11.7815C106.266 11.7838 106.311 11.7885 106.357 11.7909C106.37 11.5991 106.447 11.3769 106.385 11.2225C106.197 10.75 106.259 10.2402 106.136 9.74666C105.963 9.05669 106.088 8.2755 106.112 7.53641C106.121 7.23001 106.246 6.92362 106.231 6.6219C106.184 5.71441 106.194 4.81862 106.434 3.89475C106.203 3.85733 105.989 3.84096 105.786 3.78483C105.44 3.68893 105.55 4.14268 105.34 4.20115C105.327 3.90411 105.241 3.77313 105.085 3.80354V8.47664C104.852 8.34332 104.768 8.17493 104.77 7.90829C104.781 6.68037 104.77 5.45246 104.778 4.22454C104.781 3.9579 104.72 3.73103 104.469 3.68893C104.199 3.64216 103.918 3.67958 103.68 3.67958C103.555 3.90645 103.444 4.10759 103.336 4.3064C103.31 4.29471 103.282 4.28067 103.254 4.26664C103.319 4.13098 103.395 4 103.44 3.85967C103.455 3.81289 103.393 3.68893 103.358 3.68659C103.187 3.66788 103.016 3.67724 102.846 3.67724C102.865 3.93452 102.891 4.13332 102.895 4.33213C102.902 4.70401 102.999 5.12267 102.872 5.43608C102.755 5.71909 102.763 5.89217 102.822 6.17049C102.898 6.54939 102.841 6.96104 102.841 7.36099V8.37139C102.757 8.25912 102.716 8.1492 102.705 8.03225C102.653 7.5177 102.629 6.99846 102.558 6.48858C102.511 6.1471 102.344 5.81732 102.56 5.47585C102.584 5.43609 102.556 5.35422 102.549 5.29341C102.524 5.02444 102.448 4.75079 102.476 4.49117C102.545 3.79184 102.368 3.59538 101.73 3.73805C101.654 3.75442 101.574 3.74974 101.395 3.7591C101.324 4.18711 101.242 4.62215 101.185 5.05952C101.142 5.39164 101.127 5.72377 101.118 6.05823C101.108 6.47221 101.116 6.8862 101.116 7.41479C101.289 7.15985 101.395 7.00314 101.514 6.82538L101.356 9.52213C101.265 9.46131 101.198 9.41922 101.116 9.36542C100.924 9.77239 100.922 10.1302 101.242 10.4086C101.503 10.6354 101.468 10.9278 101.449 11.2178C101.44 11.3628 101.389 11.5032 101.36 11.6458C101.274 12.0692 101.386 12.2212 101.864 12.2165C101.456 12.0341 101.799 11.868 101.808 11.6973C101.845 10.9722 101.899 10.2472 101.942 9.51979C101.955 9.28356 101.951 9.04499 101.957 8.8111C101.974 8.16791 101.974 7.53407 101.765 6.90491C101.67 6.61723 101.683 6.243 101.763 5.94362C101.817 5.74014 102.076 5.60214 102.273 5.40334C102.279 5.55069 102.292 5.66997 102.288 5.78692C102.251 6.75288 102.195 7.71416 102.182 8.68013C102.167 9.81683 102.197 10.9535 102.195 12.0926C102.195 12.5159 102.195 12.9486 102.117 13.3602C102.057 13.6877 101.881 13.9871 101.767 14.2841C101.721 14.1929 101.665 14.0853 101.613 13.9777C101.572 13.9847 101.536 13.9941 101.494 14.0011C101.538 15.0045 101.577 16.0079 101.624 17.0978L101.149 16.6347C101.12 16.6511 101.09 16.6721 101.064 16.6885C101.278 17.2896 101.492 17.893 101.709 18.5035C101.73 18.4544 101.754 18.4052 101.782 18.3397C102.117 18.7163 102.364 19.1256 102.374 19.6869C102.415 19.6215 102.456 19.556 102.493 19.4998C102.58 19.5162 102.681 19.5326 102.781 19.5536C102.781 19.4554 102.781 19.3548 102.776 19.2543C102.77 19.1233 102.707 18.9525 102.761 18.873C102.913 18.6485 102.811 18.5432 102.651 18.4333C102.642 18.4263 102.651 18.3865 102.653 18.3538C102.746 18.3304 102.841 18.3047 102.973 18.2743C102.973 18.6111 102.962 18.9175 102.975 19.2262C102.986 19.4835 103.016 19.7384 103.06 19.9887C103.068 20.0448 103.176 20.1056 103.241 20.1126C103.287 20.1173 103.373 20.0378 103.38 19.984C103.44 19.5349 103.492 19.0812 103.537 18.6298C103.548 18.5105 103.537 18.3912 103.537 18.2696C103.579 18.2696 103.615 18.2649 103.654 18.2626C103.665 18.5409 103.678 18.8216 103.691 19.0999C103.706 19.4624 103.512 19.8928 104.028 20.1477V19.5723C104.115 19.5419 104.205 19.5092 104.374 19.4484C104.249 19.1116 104.136 18.8122 104.024 18.5011C104.372 18.6415 104.482 18.8894 104.432 19.2355C104.419 19.3408 104.413 19.4601 104.441 19.5606C104.502 19.7595 104.586 19.9489 104.662 20.143C104.783 19.839 104.839 19.5677 104.882 19.294C104.897 19.2005 104.923 19.0765 104.882 19.011C104.681 18.6812 104.772 18.4356 105.135 18.155V19.3595C105.172 19.4858 105.219 19.6402 105.258 19.7992C105.289 19.9302 105.185 20.1758 105.436 20.1056C105.423 20.0775 105.41 20.0495 105.394 20.0214C105.505 19.8179 105.613 19.6144 105.738 19.3782C105.591 18.8754 105.41 18.4707 105.844 18.0965C105.801 18.4988 106.004 18.8917 105.751 19.3595C105.756 19.3525 105.758 19.3455 105.762 19.3385C105.896 19.5232 105.972 19.6261 106.034 19.7127C106.101 19.5934 106.155 19.4086 106.22 19.4039C106.337 19.3969 106.456 19.5092 106.577 19.5513C106.674 19.584 106.834 19.6402 106.878 19.5934C107.083 19.3618 107.252 19.4343 107.394 19.6402C107.487 19.7758 107.539 19.9419 107.649 20.1805C107.829 19.6612 107.729 19.1584 107.751 18.6742C107.768 18.2322 107.868 17.7924 107.762 17.334C107.898 17.458 108.069 17.589 108.077 17.7293C108.099 18.0825 108.043 18.4403 108.032 18.7958C108.026 19.004 108.002 19.2285 108.056 19.4203C108.093 19.5419 108.261 19.6168 108.462 19.7899C108.417 19.135 108.378 18.5549 108.333 17.9258C108.458 18.0263 108.54 18.0965 108.622 18.1643C108.681 18.01 108.685 17.8813 108.639 17.7784C108.536 17.5398 108.345 17.3223 108.311 17.0744C108.246 16.5879 108.242 16.0897 108.253 15.5962C108.272 14.7987 108.304 13.9964 108.374 13.2012C108.4 12.8831 108.542 12.5744 108.631 12.261C108.67 12.268 108.706 12.275 108.743 12.282C108.802 12.4621 108.901 12.6399 108.91 12.8223C108.927 13.2527 108.916 13.6854 108.89 14.1134C108.854 14.6864 108.761 15.2524 108.834 15.8325C108.886 16.2254 108.828 16.63 108.854 17.0276C108.879 17.444 108.953 17.8556 109.003 18.2672L109.152 18.2836C109.273 17.7457 109.394 17.2101 109.515 16.6698C109.669 17.2943 109.539 17.9796 109.861 18.5386C110.248 18.5619 110.397 18.0638 110.775 18.1433C110.786 18.1456 110.823 18.1105 110.821 18.0942C110.791 17.872 110.771 17.6451 110.717 17.4299C110.667 17.2288 110.533 17.044 110.516 16.8429H110.512ZM108.934 5.73078C109.044 5.88749 109.186 6.08863 109.325 6.2968C109.362 6.35059 109.4 6.42076 109.398 6.47923C109.362 7.02419 109.321 7.56915 109.273 8.16323C109.05 7.78901 108.877 6.37866 108.934 5.73312V5.73078ZM102.219 17.8533C101.773 17.6147 101.702 17.2639 101.771 16.8148C101.808 16.5809 101.754 16.3283 101.741 16.0874C101.737 15.9892 101.73 15.8886 101.73 15.7904V14.5718C101.819 14.7636 101.868 14.8665 101.964 15.0723C102.057 14.8267 102.124 14.6513 102.221 14.3987V17.8556L102.219 17.8533ZM102.519 15.5565C102.549 14.9811 102.575 14.5086 102.599 14.0409H102.696C102.645 14.5157 102.889 15.0068 102.517 15.5565H102.519ZM103.542 6.39737V9.3584C103.339 8.36671 103.306 7.37736 103.542 6.39737ZM103.592 13.3088H103.499V11.1827L103.6 11.1734C103.702 11.8844 103.628 12.5954 103.594 13.3088H103.592ZM104.011 13.2644V12.7896C104.011 12.4598 103.935 12.1043 104.028 11.8119C104.277 11.0471 103.933 10.294 104.069 9.53616C104.113 9.30695 104.011 9.04967 104.015 8.80643C104.026 8.11177 104.056 7.41946 104.08 6.72715C104.102 6.10501 104.125 5.48052 104.154 4.86072C104.154 4.81862 104.184 4.78119 104.203 4.73909L104.296 4.75313C104.296 5.35422 104.288 5.95766 104.296 6.55875C104.316 7.83812 104.348 9.1175 104.37 10.3945C104.372 10.5793 104.352 10.7617 104.352 10.9442C104.352 11.3956 104.391 11.854 104.352 12.3031C104.327 12.6305 104.199 12.9463 104.117 13.269C104.08 13.269 104.045 13.2667 104.011 13.2644ZM104.342 17.5726C104.253 17.3551 104.162 17.1399 104.074 16.9224C104.519 16.9551 104.426 17.2685 104.342 17.5726ZM104.772 9.06604C105.023 9.22977 105.144 9.42389 105.103 9.80045C105.049 10.3057 105.107 10.8249 105.116 11.3394C105.118 11.4985 105.116 11.6622 105.116 11.8213L104.995 11.8353C104.882 10.9231 104.772 10.0133 104.662 9.10347L104.772 9.06604ZM105.129 18.0474C105.057 17.9328 105.001 17.8462 104.947 17.7597H104.945C105.049 17.5352 104.997 17.1422 104.811 16.747C104.861 16.7961 104.912 16.8405 105.046 16.9692C105.029 16.5669 105.016 16.2722 105.003 15.9798L104.928 15.9845C104.902 16.0687 104.873 16.1505 104.85 16.2371L104.759 16.1997C104.819 15.9868 104.88 15.7763 104.947 15.5378H105.04C104.941 15.4091 104.794 15.3062 104.785 15.1893C104.739 14.532 104.707 13.8678 104.711 13.2082C104.714 12.9346 104.781 12.6329 105.129 12.4808V18.0474ZM105.481 6.94233C105.481 6.67102 105.507 6.40205 105.546 6.14009C105.555 6.07694 105.66 6.02782 105.794 5.90854V9.50576C105.567 9.19936 105.416 8.91635 105.487 8.46261C105.565 7.97144 105.479 7.45221 105.481 6.94467V6.94233ZM105.87 10.8834H105.868C105.823 11.1547 105.857 11.44 105.857 11.7207C105.857 12.2165 105.861 12.7124 105.861 13.2082C105.861 13.3111 105.857 13.4164 105.857 13.5193V16.8499C105.366 16.3049 105.384 15.6758 105.394 15.0536C105.399 14.8408 105.386 14.6256 105.401 14.4127C105.405 14.3566 105.487 14.3098 105.531 14.2514C105.557 14.2139 105.598 14.1718 105.598 14.1297C105.604 13.8163 105.617 13.5006 105.6 13.1895C105.578 12.8059 105.613 12.3826 105.477 12.0481C105.161 11.2763 105.461 10.4951 105.282 9.69754C105.827 10.025 105.957 10.3431 105.87 10.8857V10.8834ZM106.11 14.3566H106.112C106.136 14.3496 106.16 14.3449 106.181 14.3402C106.203 14.4244 106.225 14.511 106.242 14.5765C106.326 14.3894 106.413 14.1976 106.499 14.0058C106.527 14.0128 106.558 14.0175 106.584 14.0245V17.1095C106.415 16.8967 106.648 16.5107 106.235 16.4008C106.194 15.7529 106.153 15.0536 106.11 14.3543V14.3566ZM106.428 19.0788H106.426C106.387 18.8145 106.348 18.5573 106.309 18.2953L106.473 18.2672C106.517 18.5269 106.555 18.7841 106.599 19.0438L106.428 19.0812V19.0788ZM107.366 10.8319H107.368C107.284 11.1032 107.28 11.3301 107.297 11.6037C107.349 12.4224 107.383 13.2433 107.383 14.0643C107.383 14.4338 107.28 14.8033 107.241 15.1776C107.191 15.6313 106.996 16.1763 107.161 16.5224C107.409 17.0487 107.252 17.5422 107.327 18.0427C107.336 18.1082 107.319 18.176 107.249 18.2532C107.219 18.1784 107.189 18.1035 107.159 18.0263C107.139 18.0263 107.118 18.031 107.098 18.0334C107.148 18.4216 107.193 18.8122 107.243 19.2005L107.182 19.2449C107.122 19.1303 107.005 19.0157 107.012 18.9058C107.057 18.1503 107.094 17.4065 106.992 16.6464C106.884 15.8442 106.869 15.0255 106.88 14.2046L106.919 14.3145C107.286 13.6737 107.308 13.1404 106.947 12.7825V13.2644C106.906 13.262 106.869 13.2573 106.828 13.255C106.869 12.9603 106.873 12.6562 106.953 12.3756C107.096 11.8867 107.154 11.412 106.947 10.8693C106.91 10.991 106.899 11.0284 106.886 11.0681C106.867 11.0681 106.845 11.0635 106.826 11.0611V8.98652C107.165 9.2321 107.362 9.49406 107.336 9.92442C107.319 10.2285 107.453 10.5676 107.366 10.8366V10.8319ZM107.652 15.802H107.654C107.708 15.5799 107.613 15.3109 107.585 15.0653C107.572 14.9437 107.537 14.8267 107.537 14.7051C107.533 14.1274 107.485 13.5474 107.546 12.9767C107.634 12.1581 107.455 11.3535 107.537 10.5442C107.55 10.4109 107.628 10.2846 107.639 10.1513C107.643 10.0718 107.572 9.98757 107.526 9.88232C107.675 9.94781 107.792 10.0016 107.907 10.0507L108.002 9.97821C107.928 9.77473 107.842 9.57358 107.788 9.36308C107.729 9.12919 107.699 8.88595 107.662 8.64504C107.651 8.57487 107.684 8.48834 107.658 8.42986C107.582 8.26614 107.613 8.1913 107.731 8.03693C107.84 7.89894 107.805 7.61827 107.807 7.40075C107.816 6.98443 107.857 6.55641 107.788 6.15179C107.734 5.84539 107.712 5.58811 107.885 5.33317C107.902 5.30745 107.93 5.28873 107.963 5.25833C108.006 7.19727 108.106 9.12218 108.069 11.0401C108.028 12.9556 108.099 14.8688 108.103 16.8896C107.807 16.5178 107.535 16.2815 107.652 15.7974V15.802ZM110.043 18.038C110.146 17.7223 109.504 17.6404 109.939 17.2849C110.304 17.5749 110.319 17.6521 110.043 18.038Z" fill="#FFFDF2"/>
<path d="M105.734 19.3873C105.734 19.3873 105.74 19.3735 105.745 19.3665C105.74 19.3735 105.738 19.3804 105.734 19.385V19.3873Z" fill="#FFFDF2"/>
<path d="M98.3313 16.899L98.3508 16.8896C98.3551 16.6487 98.4373 16.4265 98.2384 16.209C98.1778 16.1435 98.2578 15.9237 98.2816 15.7015C97.9768 15.512 97.9681 14.7987 97.3433 14.8875C97.2331 14.518 97.125 14.1648 97.0299 13.807C96.9564 13.5286 96.9023 13.2433 96.8375 12.9626L96.7229 12.9837C96.7121 13.1053 96.6991 13.2222 96.6797 13.4C96.6083 13.0258 96.5499 12.7217 96.4807 12.3685L95.9424 12.8971C95.7198 12.2002 95.9727 11.447 95.6073 10.8155C95.7024 11.4517 95.776 12.0855 95.5706 12.8457C95.4236 12.6492 95.2766 12.5369 95.2398 12.3943C95.1771 12.137 95.1685 11.8587 95.162 11.592C95.1577 11.4517 95.242 11.302 95.2204 11.1687C95.1836 10.9395 95.095 10.7173 94.9999 10.3922C94.9264 10.9699 94.8636 11.4657 94.7988 11.9639L94.7145 11.9569C94.6885 11.9078 94.6626 11.8587 94.6366 11.8049C94.6129 11.868 94.5891 11.9288 94.5675 11.9873C94.5416 11.9756 94.5134 11.9639 94.4875 11.9546C94.5437 11.8096 94.6107 11.6669 94.6518 11.5172C94.6756 11.426 94.6777 11.316 94.6583 11.2248C94.6323 11.0915 94.5458 10.9676 94.5394 10.8389C94.5221 10.4998 94.5567 10.1583 94.5243 9.82618C94.4983 9.54785 94.401 9.27887 94.3362 9.00055C94.0724 9.04732 94.2108 8.79239 94.1957 8.65673C94.1762 8.46026 94.1762 8.26146 94.1697 8.06733C94.1265 8.06967 94.0854 8.07435 94.0421 8.07669C94.0551 8.36671 94.0681 8.65673 94.0897 9.04031C93.9795 8.85086 93.9103 8.73157 93.8411 8.61229C93.7676 8.48131 93.7027 8.34566 93.6249 8.21702C93.5427 8.0837 93.4001 7.97143 93.372 7.8311C93.3136 7.52938 93.2703 7.20662 93.3006 6.9049C93.4109 5.78457 92.8142 4.99402 92.2953 4.1684C92.1851 4.49116 92.0576 4.79288 91.9819 5.10863C91.8781 5.53899 91.8327 5.98104 92.0921 6.39268C92.1073 6.31082 92.1224 6.22428 92.1526 6.0629C92.1786 6.25001 92.2045 6.3576 92.2067 6.46987C92.2153 6.68037 92.2867 7.01717 92.1981 7.08266C91.9365 7.27211 92.0662 7.46623 92.0857 7.67673C92.1202 8.05563 92.144 8.43688 92.1699 8.81578L92.2045 9.22274C92.2261 9.2204 92.2478 9.21573 92.2694 9.21339C92.3061 8.72924 92.3386 8.24742 92.3753 7.76561C92.4812 8.13516 92.5093 8.50002 92.5331 8.86489C92.5569 9.24379 92.585 9.62737 92.5958 10.0063C92.6045 10.3618 92.5893 10.7173 92.598 11.0705C92.6218 11.992 92.6239 11.9967 92.4791 12.137C92.4531 11.5359 92.4272 10.9535 92.4013 10.3337C92.317 10.4296 92.2694 10.4811 92.1894 10.5723C92.1894 10.1232 92.2262 9.72794 92.1808 9.3467C92.1332 8.95143 92.0078 8.56785 91.8932 8.07435C91.8521 8.29888 91.8305 8.4205 91.8111 8.54213L91.6965 8.54914L91.6122 6.35292C91.5538 6.35526 91.4955 6.35994 91.4349 6.36228V7.8732L91.3441 7.88724C91.236 7.75392 91.1322 7.6206 91.0241 7.48728L90.9333 7.49898C90.9615 7.8311 90.715 8.11411 90.8642 8.46494C90.5247 8.81578 91.1128 9.13854 90.8642 9.50107C90.9658 9.47534 91.0415 9.45429 91.1128 9.43558C91.1474 9.50809 91.1949 9.57124 91.1971 9.63906C91.2317 10.4343 91.262 11.2295 91.2749 12.0294C91.2749 12.0926 91.1323 12.1604 90.9961 12.275C91.0155 12.4598 91.0285 12.7264 91.0825 12.9884C91.1214 13.1755 91.2922 13.3626 91.2685 13.524C91.2058 13.9099 91.2231 14.2935 91.2209 14.677V15.2758H91.1301C91.0998 14.9507 91.0717 14.6279 91.0414 14.3028C90.9852 13.7181 90.9139 13.1334 90.8815 12.544C90.8685 12.2914 90.8642 11.9826 90.9852 11.7955C91.1928 11.4751 91.2317 10.715 90.9507 10.3782L91.009 11.433C90.955 11.4353 90.8988 11.44 90.8469 11.4423V9.53148L90.7734 9.52446C90.7388 9.57124 90.7085 9.61567 90.6653 9.67882C90.6091 9.54083 90.5659 9.43792 90.5248 9.33033C90.4664 9.51978 90.4621 9.68116 90.4664 9.84021C90.4837 10.5466 90.5334 11.2552 90.5118 11.9616C90.5053 12.1697 90.3043 12.3686 90.1918 12.5744C90.1572 12.5603 90.1248 12.544 90.0881 12.5276V10.4811H89.7486C89.8632 10.9114 89.7378 11.3137 89.8027 11.7558C89.8848 12.2984 89.7357 12.8761 89.7011 13.4398C89.6903 13.6339 89.727 13.828 89.7292 14.0221C89.7356 14.3379 89.7292 14.656 89.7292 14.9694H89.6081C89.5648 14.1321 89.5238 13.2971 89.4784 12.3849C89.0547 12.8176 89.1001 13.4585 88.8147 13.9941V12.9229C88.4039 13.552 88.5812 14.1695 88.6266 14.7612C88.6504 15.0887 88.4558 15.3693 88.1531 15.3296V14.9367L88.0667 14.9226C88.0321 15.1308 87.9716 15.3389 87.9672 15.5471C87.9564 16.2488 87.95 16.9528 87.9737 17.6544C87.9824 17.9141 88.0926 18.1667 88.1294 18.4263C88.1597 18.6438 88.1812 18.8683 88.1575 19.0858C88.1402 19.2449 88.0429 19.3922 87.9975 19.5139C88.1229 19.5864 88.2072 19.6074 88.2461 19.6636C88.4364 19.9559 88.8277 20.012 89.0828 19.7805C89.1887 19.846 89.2925 19.9091 89.4784 20.0214V18.8426L89.5995 18.8215C89.6557 19.1139 89.6881 19.411 89.7724 19.694C89.8459 19.9489 89.9691 20.1828 90.0708 20.426C90.2264 20.0869 90.3064 19.7478 90.3929 19.4133C90.4123 19.3361 90.475 19.2706 90.5204 19.2005V19.9208C90.6848 19.7922 90.7777 19.7197 90.8966 19.6285C90.9096 19.7454 90.9182 19.8273 90.9269 19.9091C91.0436 19.8039 91.1366 19.6706 91.1409 19.5349C91.1582 19.1467 91.1495 18.7537 91.1322 18.3655C91.1041 17.7924 91.0566 17.2217 91.0176 16.6511L91.1279 16.637C91.1798 16.8405 91.2295 17.044 91.2857 17.2826C91.8067 17.2919 91.4479 17.8065 91.6078 18.0871C91.7938 17.7129 91.6684 17.3223 91.7008 16.9528C91.7311 16.616 91.7657 16.2815 91.636 15.8792C91.7549 15.9611 91.8089 16.0008 91.8478 16.0289C91.8824 15.9541 91.9019 15.8979 91.9602 15.7623V16.8569H92.0121C92.0424 16.7306 92.0727 16.6066 92.1289 16.3797C92.1937 16.6908 92.237 16.8896 92.291 17.1609C92.3256 16.8639 92.4164 16.6207 92.3581 16.4359C92.2521 16.0921 92.3775 15.9845 92.6607 15.926C92.6672 16.0663 92.6715 16.2043 92.678 16.3938C92.7299 16.2979 92.7558 16.2535 92.7904 16.188C92.851 16.3096 92.905 16.4148 92.959 16.5224C92.9806 16.5154 93.0044 16.5107 93.026 16.5037V15.4185C93.0433 15.4161 93.0628 15.4114 93.0779 15.4091C93.1147 15.484 93.1515 15.5588 93.2271 15.7132C93.3525 15.4138 93.4498 15.1729 93.5471 14.9437C93.5838 15.2781 93.6163 15.6243 93.6595 16.0219C93.8649 15.6781 93.64 15.2524 93.947 15.0021C93.9319 15.4068 93.893 15.7997 94.2367 16.1435C94.2454 15.6524 94.027 15.2033 94.2929 14.7776L94.3902 15.8114L94.5199 15.8044V13.0492L94.6431 13.0562C94.5307 14.1695 94.9609 15.3039 94.4983 16.4593L95.696 18.0754C95.9576 17.8439 95.7889 17.6685 95.7197 17.4837C95.5663 17.0627 95.6744 16.8966 96.1046 16.8873C96.1327 17.1188 96.1543 17.3551 96.1954 17.5819C96.2084 17.6544 96.2862 17.7129 96.3337 17.7784C96.3532 17.7012 96.3878 17.624 96.3943 17.5469C96.4245 17.03 96.4483 16.5107 96.4764 15.9938C96.5218 15.9985 96.5651 16.0009 96.6105 16.0055C96.5802 16.3517 96.5348 16.6955 96.524 17.0417C96.5132 17.3902 96.5326 17.7433 96.5348 18.0918C96.5348 18.6048 96.6141 18.9447 96.7726 19.1116V18.6719H96.8829C96.8829 18.8356 96.9023 19.004 96.8785 19.1654C96.8137 19.5957 97.2201 19.6729 97.3628 19.9466C97.3715 19.9629 97.5314 19.9325 97.5444 19.8904C97.6785 19.5373 97.7606 19.6074 97.886 19.9021C97.9206 19.9793 98.1021 20.0308 98.2038 20.012C98.2816 19.9957 98.3897 19.853 98.3919 19.7618C98.407 19.3993 98.3919 19.0344 98.3832 18.6695C98.3681 18.0825 98.3292 17.4931 98.34 16.9083L98.3313 16.899ZM90.5096 12.7615V14.8922C90.4188 14.8454 90.3799 14.8291 90.3799 14.8267C90.4685 14.4806 90.2199 14.2514 90.14 13.9637C89.9973 13.4421 90.248 13.0538 90.5096 12.7615ZM90.2221 17.2919V16.1809C90.421 16.4078 90.5572 17.3364 90.4837 17.8065C90.3972 17.6334 90.3302 17.5001 90.2221 17.2919ZM90.5204 19.1724C90.4945 19.0952 90.4512 19.0204 90.4426 18.9432C90.408 18.5994 90.3842 18.2532 90.4059 17.9024C90.5918 18.307 90.5096 18.7467 90.5204 19.1724ZM91.9776 12.9392H91.9754C91.6965 12.6399 91.5754 12.3101 91.6273 11.9265C91.6641 11.6645 91.7679 11.4049 91.757 11.1453C91.7419 10.7898 91.6446 10.439 91.5841 10.0858C91.5754 10.0367 91.5733 9.9899 91.5668 9.94078C91.5905 9.91272 91.6143 9.87997 91.636 9.8519C91.7268 9.9361 91.8911 10.0133 91.8997 10.1092C91.9667 10.8413 92.0121 11.578 92.0445 12.3148C92.0532 12.5136 92.0013 12.717 91.9776 12.9416V12.9392ZM92.8077 8.88126C92.7515 8.35735 92.6974 7.83344 92.6369 7.26041C92.5288 7.41478 92.4726 7.49664 92.4185 7.5785C92.3926 7.56213 92.3624 7.5481 92.3342 7.52939L92.6499 5.10161L92.7861 5.11565C92.9115 6.36228 93.0152 7.61125 92.8099 8.88126H92.8077ZM93.3201 11.6552H93.3179L93.2444 11.6528C93.2098 11.0073 93.1796 10.3618 93.1493 9.71859L93.3222 9.70923V11.6552H93.3201ZM93.2357 8.73158C93.2811 8.97482 93.3266 9.22274 93.3806 9.51978C92.812 9.35138 93.2747 8.9678 93.2357 8.73158ZM94.0529 11.3698C94.0594 11.5406 94.0529 11.716 94.0529 11.8867H93.9946C93.9448 11.1944 93.8951 10.5045 93.8454 9.77238C94.094 9.89868 94.1135 9.99458 94.0335 10.2799C93.9427 10.6097 94.04 11.0026 94.0529 11.3675V11.3698ZM95.8538 15.3226C95.8149 15.5331 95.6376 15.6594 95.5922 15.8371C95.5166 16.1505 95.5057 16.4827 95.4625 16.8522C95.1339 16.4429 94.8399 16.0476 94.8572 15.498C94.8723 14.9904 94.9328 14.4852 94.9739 13.98H95.0647V15.9096C95.1858 15.8816 95.2614 15.8629 95.3371 15.8465V14.0572C95.3544 14.0572 95.376 14.0549 95.3955 14.0549L95.5187 15.5448L95.6311 15.5378V14.0268C95.8387 14.2654 95.9295 14.9039 95.8538 15.3226ZM96.2819 14.0198C96.2494 14.5461 96.217 15.0746 96.1867 15.6009C96.1651 15.6032 96.1435 15.6079 96.1219 15.6126C96.1024 15.5424 96.0657 15.4723 96.0635 15.4021C96.0527 15.0162 96.044 14.6279 96.0527 14.242C96.0548 14.1531 96.1349 14.0689 96.1781 13.98C96.2148 13.9917 96.2494 14.0058 96.2862 14.0198H96.284H96.2819ZM96.5499 14.8969C96.4699 14.5554 96.39 14.2069 96.3554 13.8537C96.3446 13.7321 96.4764 13.5941 96.5932 13.3696C96.7748 13.9075 96.8029 14.3239 96.6537 14.7612C96.6364 14.815 96.6645 14.8992 96.6926 14.9577C96.7185 15.0138 96.7704 15.0513 96.8115 15.1027C96.8158 15.1074 96.8072 15.1238 96.7618 15.2828C96.6602 15.1027 96.5759 15.0092 96.5521 14.8992L96.5499 14.8969ZM96.8526 18.328C96.8158 18.328 96.7791 18.3234 96.7423 18.321C96.7574 17.9632 96.7726 17.603 96.7921 17.2451L96.8526 17.2498V18.328Z" fill="#FFFDF2"/>
<path d="M44.202 3.67961C43.6205 3.62114 43.0346 3.6188 42.4509 3.60477C41.9947 3.59541 41.9947 3.60476 41.9947 4.09125V19.4157C41.9947 19.5022 41.9709 19.6051 42.0012 19.6753C42.0444 19.7642 42.1309 19.8951 42.2022 19.8951C43.3653 19.9068 44.5241 19.9045 45.6959 19.9045C45.7132 19.839 45.7197 19.8273 45.7197 19.8156C45.7218 15.0677 45.7348 10.3221 45.7197 5.57411C45.7175 4.59178 45.0192 3.75679 44.202 3.67961Z" fill="#FFFDF2"/>
<path d="M81.9421 19.2285C81.847 19.1093 81.6935 19.011 81.6914 18.9034C81.6806 18.5082 81.7151 18.1152 81.7346 17.7176L81.7411 17.727V17.7153C81.7411 17.7153 81.7368 17.7153 81.7368 17.7176C81.6719 17.5328 81.6136 17.3457 81.54 17.1656L81.5444 17.161C81.5119 17.0814 81.4427 17.0206 81.4168 16.9809C81.3519 16.6768 81.2893 16.3868 81.2266 16.0968L81.1249 16.1061C81.1098 16.3236 81.0709 16.5388 81.0795 16.7563C81.0968 17.168 81.1639 17.5773 81.166 17.9842C81.1725 18.5269 81.1401 19.0648 81.1163 19.6074C81.1142 19.6682 81.0687 19.7267 81.0147 19.846C80.9606 18.7233 80.9066 17.6732 80.8633 16.7423C80.4656 16.3634 80.0505 16.1178 79.8538 15.7412C79.6527 15.3553 79.6678 14.8384 79.5814 14.3473C79.5511 14.4502 79.5209 14.5437 79.4949 14.6326C79.3868 14.5391 79.322 14.4198 79.3349 14.3122C79.3933 13.8093 79.4841 13.3088 79.5381 12.8059C79.6095 12.1674 79.9597 11.5312 79.5554 10.8576C79.4019 10.9699 79.2441 11.0798 79.069 11.2085C79.043 11.1173 78.989 11.0167 78.989 10.9161C78.9868 10.5021 78.9934 10.0858 79.0106 9.66948C79.0258 9.31163 79.0474 8.95612 79.0928 8.60295C79.1295 8.31994 79.3046 8.01121 79.2398 7.76796C79.1468 7.41947 79.4992 6.89322 78.9523 6.75756C79.0474 6.64296 79.203 6.54706 79.2095 6.43947C79.2355 5.92959 79.2203 5.41738 79.2203 4.94024C79.1425 4.9075 79.0668 4.87709 78.9977 4.83733C78.9912 4.83499 79.0279 4.71805 79.0344 4.71805C79.1209 4.73442 79.2052 4.76249 79.2614 4.77886C79.2852 4.61747 79.3133 4.44908 79.3371 4.29003C79.4582 4.33447 79.5835 4.39294 79.59 4.38125C79.6506 4.26664 79.6981 4.14502 79.724 4.01638C79.7284 4.00001 79.6073 3.92283 79.5425 3.91815C79.296 3.90645 79.0517 3.91347 78.8052 3.91347C78.8052 3.89008 78.8009 3.86435 78.7987 3.84096C78.7123 3.91815 78.6258 3.99533 78.4853 4.12397C78.5112 3.91347 78.5307 3.77547 78.5545 3.59772C78.4637 3.61643 78.3102 3.62345 78.308 3.65385C78.2691 3.96492 77.9729 4.17309 78.0529 4.54731C78.1134 4.83499 78.0637 5.1484 78.0637 5.45246C78.0291 5.45246 77.9967 5.4548 77.9599 5.4548C77.921 4.84201 77.8843 4.2339 77.8432 3.61409H77.5059C77.4973 3.81056 77.4908 4.00235 77.4822 4.19414C77.4411 4.19647 77.4043 4.20115 77.3633 4.20349C77.3503 4.05848 77.3373 3.91581 77.3135 3.68426C77.0303 3.68426 76.7234 3.68192 76.4142 3.6866C76.3753 3.6866 76.3126 3.73337 76.3061 3.76378C76.2456 4.13566 76.1547 4.51222 76.1547 4.88411C76.1547 5.32382 76.2628 5.76353 76.2693 6.20558C76.278 6.72482 76.2283 7.24873 76.2066 7.80071C75.5732 7.34228 76.0358 6.61255 75.7743 5.99508C75.7483 6.1284 75.7245 6.17985 75.7267 6.22897C75.7462 6.6757 75.7916 7.12243 75.7872 7.56682C75.7829 8.21001 75.7267 8.85087 75.7267 9.49406C75.7267 10.4507 75.7634 11.412 75.7786 12.3686C75.7916 13.1731 75.8002 13.9824 75.8046 14.787C75.8067 15.1565 75.7872 15.5237 75.7937 15.8956C75.811 16.775 75.8283 17.6591 75.8651 18.5386C75.8845 19.0367 75.9472 19.5326 75.9883 20.0261C76.1612 20.0471 76.2802 20.0635 76.3947 20.0776C76.4099 20.2272 76.4207 20.3582 76.4336 20.4869C76.4617 20.4939 76.492 20.5009 76.5201 20.5102C76.5699 20.3816 76.6153 20.253 76.6606 20.1407C77.4951 20.0986 78.3448 20.143 79.1663 19.8296L79.296 20.3185C79.5965 20.0776 79.8667 19.8203 80.3488 20.1547C80.2667 19.1046 80.191 18.169 80.1153 17.2335C80.1434 17.2218 80.1737 17.2077 80.2019 17.1937L80.4159 17.7901C80.4872 17.7387 80.5737 17.6778 80.6537 17.6241C80.6839 18.4777 80.7163 19.2964 80.7444 20.0776C81.0903 19.984 81.3519 19.9138 81.6676 19.8249C81.7281 19.7828 81.8557 19.6987 82.0243 19.5864L81.62 19.3829C81.78 19.3034 81.8837 19.2543 81.9335 19.2309L81.9421 19.2285ZM76.1591 8.01355V13.2269C75.8456 12.7334 75.8888 8.24276 76.1591 8.01355ZM76.1137 17.0463V15.9026C76.2585 16.2792 76.2477 16.6628 76.1137 17.0463ZM78.001 13.0726L77.9491 13.0843C77.9491 12.8761 77.9599 12.6679 77.9448 12.4621C77.9318 12.2984 77.8778 12.1394 77.854 11.9756C77.8454 11.9172 77.8583 11.8447 77.8821 11.7909C77.8951 11.7628 77.988 11.7394 77.9945 11.7488C78.0291 11.8026 78.068 11.8704 78.0637 11.9312C78.0486 12.3101 78.0205 12.689 77.9988 13.0679H78.001V13.0726ZM78.2691 19.7688V18.2696C78.2929 18.2649 78.321 18.2626 78.3448 18.2579C78.3685 18.714 78.3967 19.1701 78.4118 19.6238C78.4118 19.6682 78.3275 19.7127 78.2691 19.7688ZM78.2734 15.9377V13.8935C78.5004 14.2794 78.5199 15.4676 78.2734 15.9377ZM78.6842 11.709C78.5329 11.4985 78.5221 10.6588 78.6842 10.3548V11.709ZM78.7382 10.1794C78.708 10.1794 78.6755 10.177 78.6452 10.1747V9.35139L78.7815 9.35841C78.7663 9.63206 78.7534 9.90571 78.7382 10.1794ZM79.1014 19.28C79.0604 19.28 79.0236 19.2823 78.9825 19.2823V16.7984L79.1014 16.7914V19.28ZM79.0733 15.6266C78.7685 14.8478 79.0496 14.0362 78.9004 13.2433C79.1533 14.0268 79.2311 14.8197 79.0733 15.6266ZM79.9208 19.4273C79.7651 19.3899 79.6786 19.1607 79.6635 18.7374C79.6051 18.7561 79.5533 18.7701 79.4127 18.8145C79.4841 18.2789 79.5511 17.7901 79.6181 17.2989C79.6678 17.2826 79.7154 17.2615 79.7651 17.2428C79.8473 17.334 80.0072 17.4276 80.0051 17.5165C79.9964 18.1526 79.9532 18.7888 79.9208 19.4273ZM81.2698 19.3595L81.3411 17.8813H81.4103C81.4514 18.2509 81.5098 18.6181 81.5206 18.99C81.5227 19.0882 81.3866 19.1958 81.2698 19.3595Z" fill="#FFFDF2"/>
<path d="M85.2605 16.5646H85.2626C85.254 16.333 85.1351 16.1085 85.0551 15.8372C84.9773 16.0477 84.9167 16.2067 84.8454 16.3985C84.6184 15.9471 84.0995 15.8746 83.572 16.1646C83.5871 16.4195 83.5979 16.6581 83.6152 16.8967L83.5201 16.9084C83.4855 16.8172 83.4509 16.7236 83.3991 16.5833C83.3234 16.6932 83.2737 16.768 83.2218 16.8429C83.1548 16.747 83.0856 16.6487 83.0186 16.5552C82.9559 16.602 82.8932 16.6464 82.8327 16.6909C82.6619 16.4616 82.543 16.1763 82.3419 16.057C82.1452 15.9401 81.862 15.9962 81.5723 15.9752C81.6631 16.1927 81.7928 16.3751 81.8036 16.5622C81.8187 16.9434 81.7712 17.3294 81.7474 17.7129C81.8187 17.6732 81.916 17.6521 81.9463 17.5913C81.9873 17.5118 81.9701 17.3972 81.9809 17.299C82.3441 17.8697 82.1149 18.5292 82.2684 19.1233C82.303 19.1233 82.3354 19.121 82.37 19.1186V17.2662C82.4262 17.4089 82.4889 17.5165 82.5062 17.6287C82.5257 17.7738 82.4652 17.9515 82.5192 18.0708C82.6295 18.3164 82.4003 18.7233 82.8154 18.8239C82.5494 18.3351 82.7462 17.8603 82.8024 17.3855C82.8326 17.3855 82.8673 17.3878 82.8975 17.3878C82.8716 17.8673 82.8435 18.3421 82.8154 18.8216C82.8283 18.9034 82.8435 18.9853 82.8694 19.1303L83.0748 18.8309C83.1612 18.8637 83.2434 18.8964 83.3256 18.9268C83.1721 19.2379 83.0164 19.5537 82.8845 19.825C83.0251 19.8858 83.2175 20.0425 83.3991 20.0284C83.5871 20.0144 83.9158 19.832 83.9158 19.7221C83.9201 19.135 83.8639 18.5386 83.786 17.9539C83.719 17.451 83.7363 17.1235 83.9028 16.9037C83.9287 17.3785 83.9093 17.9071 84.013 18.4076C84.0671 18.6742 84.1471 18.8567 83.9547 18.9643C83.9979 19.2566 84.0239 19.5022 84.0736 19.7408C84.1082 19.9068 84.1406 20.0916 84.2314 20.2179C84.2746 20.274 84.4627 20.2062 84.5708 20.1945V17.8626C84.8843 18.4988 85.0269 19.142 84.7459 19.8437C84.8216 19.8694 84.934 19.8717 84.9578 19.9255C85.1956 20.4307 85.2561 20.0074 85.2691 19.839C85.3037 19.4554 85.2799 19.0648 85.2799 18.6766C85.2799 17.9726 85.2929 17.2686 85.267 16.5669L85.2605 16.5646ZM83.3321 18.9198C83.1224 18.569 82.9645 18.2065 83.1288 17.6896C83.2066 17.9913 83.265 18.2135 83.3493 18.5409C83.4293 18.286 83.4769 18.1339 83.5547 17.886C83.6044 18.2602 83.6758 18.5386 83.6628 18.8122C83.652 19.011 83.4812 19.0157 83.3321 18.9222V18.9198Z" fill="#FFFDF2"/>
<path d="M68.5276 3.6936H68.1514V20.0354H68.5276V3.6936Z" fill="#FFFDF2"/>
<path d="M87.6238 17.5679H87.626C87.6238 17.5305 87.6325 17.4931 87.6325 17.4557V16.5833C87.4228 16.7797 87.2693 16.9224 87.1201 17.0604V19.7992C87.6563 19.8671 87.7644 19.7922 87.76 19.3314C87.76 19.2589 87.7514 19.1841 87.7449 19.1116C87.7038 18.597 87.6627 18.0848 87.6238 17.5679Z" fill="#FFFDF2"/>
<path d="M111.229 14.8502V14.4526L111.119 14.4479C110.76 15.5144 110.985 16.6254 110.961 17.7176C111.311 17.1703 111.281 16.5412 111.275 15.8512C111.396 15.9635 111.45 16.0126 111.527 16.0828C111.679 15.6267 111.538 15.1051 111.229 14.8502Z" fill="#FFFDF2"/>
<path d="M98.9693 17.6942C98.7314 18.0965 98.8374 19.2987 99.1379 19.3735C99.1379 19.0625 99.1033 18.7678 99.1444 18.4894C99.2071 18.0591 99.1876 17.865 98.9693 17.6942Z" fill="#FFFDF2"/>
<path d="M99.6329 18.2953H99.6307C99.6112 18.2672 99.5161 18.2953 99.4556 18.2953C99.4577 18.3444 99.4513 18.431 99.4642 18.4356C99.8815 18.5549 99.6545 18.9058 99.6847 19.1584L99.622 18.997C99.6782 19.4016 99.3648 19.9162 99.9442 20.2038C99.9161 19.687 99.9053 19.2098 99.8555 18.735C99.8382 18.5807 99.7215 18.4333 99.6329 18.2953Z" fill="#FFFDF2"/>
<path d="M110.215 14.1766C110.246 13.6339 110.468 13.1428 110.138 12.675C109.883 13.6035 109.887 13.7532 110.215 14.1766Z" fill="#FFFDF2"/>
<path d="M109.188 14.6818C109.515 14.0877 109.323 13.4959 109.303 12.9089H109.188V14.6818Z" fill="#FFFDF2"/>
<path d="M109.104 18.293L108.983 18.3444L109.097 19.2823L109.219 19.3408L109.56 18.8333C109.504 18.8192 109.448 18.8052 109.385 18.7865C109.303 18.6415 109.203 18.466 109.102 18.293H109.104Z" fill="#FFFDF2"/>
<path d="M109.101 18.2906C109.101 18.2906 109.101 18.2907 109.101 18.2922L109.1 18.2906H109.101Z" fill="#FFFDF2"/>
<path d="M91.597 4.51923L91.4219 5.94361H91.5516C91.5084 5.48987 92.0359 5.06653 91.597 4.51923Z" fill="#FFFDF2"/>
<path d="M79.9512 4.2456H79.9491L79.8496 4.23859L79.7632 5.57877C79.8259 5.57877 79.8885 5.57643 79.9512 5.57643V4.2456Z" fill="#FFFDF2"/>
<path d="M79.4043 7.20667L79.6551 8.03697C79.8799 7.5996 79.774 7.26748 79.4043 7.20667Z" fill="#FFFDF2"/>
<path d="M109.748 13.4515C109.709 13.0468 109.675 12.682 109.638 12.2937C109.366 12.3802 109.392 12.7451 109.748 13.4515Z" fill="#FFFDF2"/>
<path d="M96.4334 19.0695C96.3858 18.6719 96.3405 18.2836 96.2886 17.8439C96.1091 18.3491 96.1718 18.8099 96.4334 19.0695Z" fill="#FFFDF2"/>
<path d="M101.142 7.87323C101.092 8.30826 100.954 8.74563 101.142 9.16897V7.87323Z" fill="#FFFDF2"/>
</svg>
